<svg width="51" height="18" viewBox="0 0 51 18" fill="none" xmlns="http://www.w3.org/2000/svg">
<path d="M9.2455 9.0085C10.1438 9.3025 10.8625 9.84967 11.4015 10.65C11.9568 11.434 12.2345 12.3242 12.2345 13.3205C12.2345 14.6435 11.7608 15.7542 10.8135 16.6525C9.86617 17.5508 8.64933 18 7.163 18H0.548V0.849999H7.1385C8.47783 0.849999 9.58033 1.25833 10.446 2.075C11.3117 2.87533 11.7445 3.87167 11.7445 5.064C11.7445 5.92967 11.5158 6.72183 11.0585 7.4405C10.6012 8.15917 9.99683 8.68183 9.2455 9.0085ZM7.2365 2.0505H1.773V8.4205H7.31C8.20833 8.4205 8.95967 8.11017 9.564 7.4895C10.1847 6.8525 10.495 6.10117 10.495 5.2355C10.495 4.33717 10.1765 3.58583 9.5395 2.9815C8.91883 2.36083 8.15117 2.0505 7.2365 2.0505ZM7.2855 16.775C8.33083 16.775 9.20467 16.432 9.907 15.746C10.6257 15.06 10.985 14.2107 10.985 13.198C10.985 12.2017 10.6338 11.3605 9.9315 10.6745C9.22917 9.9885 8.37167 9.6455 7.359 9.6455H1.773V16.775H7.2855ZM30.8323 0.849999V2.026H25.3443V18H24.1193V2.026H18.6558V0.849999H30.8323ZM44.6758 0.849999C46.2438 0.849999 47.5504 1.35633 48.5958 2.369C49.6411 3.36533 50.1638 4.61483 50.1638 6.1175C50.1638 7.62017 49.6411 8.87783 48.5958 9.8905C47.5504 10.8868 46.2438 11.385 44.6758 11.385H40.0208V18H38.7958V0.849999H44.6758ZM44.6268 10.1845C45.8518 10.1845 46.8726 9.80067 47.6893 9.033C48.5059 8.249 48.9143 7.27717 48.9143 6.1175C48.9143 4.95783 48.5059 3.99417 47.6893 3.2265C46.8726 2.4425 45.8518 2.0505 44.6268 2.0505H40.0208V10.1845H44.6268Z" fill="black" fill-opacity="0.5"/>
</svg>
