<svg width="42" height="42" viewBox="0 0 42 42" fill="none" xmlns="http://www.w3.org/2000/svg">
<path d="M36.5556 41V5.44444C36.5556 4.2657 36.0873 3.13524 35.2538 2.30175C34.4203 1.46825 33.2899 1 32.1111 1H9.88889C8.71015 1 7.57969 1.46825 6.74619 2.30175C5.9127 3.13524 5.44444 4.2657 5.44444 5.44444V41M36.5556 41H5.44444M36.5556 41H41M36.5556 41H25.4444M5.44444 41H1M5.44444 41H16.5556M25.4444 41V29.8889C25.4444 29.2995 25.2103 28.7343 24.7936 28.3175C24.3768 27.9008 23.8116 27.6667 23.2222 27.6667H18.7778C18.1884 27.6667 17.6232 27.9008 17.2064 28.3175C16.7897 28.7343 16.5556 29.2995 16.5556 29.8889V41M25.4444 41H16.5556M14.3333 9.88889H16.5556M14.3333 18.7778H16.5556M25.4444 9.88889H27.6667M25.4444 18.7778H27.6667" stroke="#117DA1" stroke-width="2" stroke-linecap="round" stroke-linejoin="round"/>
</svg>
