<svg width="48" height="30" viewBox="0 0 48 30" fill="none" xmlns="http://www.w3.org/2000/svg">
<g clip-path="url(#clip0_13_1113)">
<path d="M47.962 15.6488C48.1521 12.582 47.2396 9.94763 45.1485 7.74579C43.5137 6.03544 41.5747 4.9935 39.2555 4.75759C38.8373 4.71827 38.8182 4.52168 38.7992 4.16781L47.962 15.6488ZM47.962 15.6488C47.6008 21.4876 42.6012 25.9896 36.6511 25.1049L47.962 15.6488ZM39.2433 4.88199C39.0175 4.86069 38.8599 4.79296 38.7707 4.64531C38.7293 4.57687 38.7086 4.50022 38.6963 4.42344C38.6841 4.3471 38.6791 4.26195 38.6744 4.17452L38.6744 4.17385C38.6691 4.06512 38.6801 3.97195 38.7126 3.89494C38.7467 3.81417 38.8018 3.7579 38.8701 3.72257C38.9346 3.68926 39.005 3.67755 39.0677 3.67273C39.1188 3.66878 39.174 3.669 39.2241 3.6692C39.2348 3.66924 39.2453 3.66928 39.2555 3.66928C39.371 3.66928 39.4889 3.66716 39.6081 3.66501C39.8505 3.66064 40.0983 3.65617 40.3423 3.66928C40.4634 3.66886 40.5213 3.64513 40.5496 3.61799C40.5749 3.59381 40.6026 3.5413 40.5947 3.41166C40.5946 3.41083 40.5945 3.40999 40.5945 3.40914L40.7192 3.4011C40.7002 3.22417 40.7002 3.02757 40.7192 2.85064L39.2433 4.88199ZM39.2433 4.88199C41.5291 5.11462 43.4412 6.14063 45.058 7.83195C47.124 10.0074 48.0253 12.6073 47.8372 15.6411L47.8372 15.6411C47.4802 21.4134 42.5407 25.8541 36.6697 24.9813C32.8018 24.3988 30.1019 22.1128 28.8045 18.2436C26.8124 12.2767 30.3838 6.04534 36.3701 4.91975L36.3701 4.91985L36.375 4.91873C36.5361 4.88169 36.7168 4.86293 36.8792 4.86293V4.86313L36.8864 4.86272C37.0724 4.85204 37.233 4.80252 37.3389 4.67538C37.4427 4.55068 37.4704 4.37885 37.4603 4.18112C37.4496 3.97051 37.3817 3.82796 37.2457 3.74979C37.1841 3.71444 37.1173 3.69773 37.0555 3.68801C37.0045 3.67998 36.9496 3.67578 36.8988 3.6719C36.8891 3.67116 36.8795 3.67042 36.8701 3.66968L36.8702 3.66928H36.8602C36.7566 3.66928 36.6535 3.66313 36.5474 3.65679C36.5219 3.65527 36.4963 3.65374 36.4704 3.65228C36.3392 3.64488 36.2036 3.63946 36.0709 3.65002L36.0709 3.64969L36.0619 3.65107C35.8149 3.68892 35.693 3.65183 35.6303 3.58843C35.564 3.52136 35.5216 3.38414 35.5402 3.11482L35.5402 3.11463C35.5428 3.07589 35.5452 3.03923 35.5475 3.00451C35.5579 2.84605 35.5656 2.72783 35.579 2.63542C35.5955 2.52124 35.6176 2.47551 35.6394 2.45236C35.6588 2.43184 35.6961 2.41032 35.799 2.39822C35.9016 2.38615 36.0425 2.38587 36.248 2.38586C36.8778 2.42518 37.4692 2.42518 38.0751 2.42518H38.0769C38.2507 2.42518 38.4254 2.4264 38.6005 2.42763C39.1288 2.43133 39.6617 2.43505 40.1933 2.40537C40.4009 2.39613 40.4936 2.43668 40.538 2.48653C40.5845 2.53881 40.613 2.63944 40.5948 2.83828L39.2433 4.88199ZM37.9816 6.10703C33.3259 6.10717 29.5309 10.0609 29.5115 14.9796C29.4731 19.683 33.1154 23.6542 37.7297 23.834C42.751 24.0337 46.5264 19.8212 46.6612 15.2003L46.6612 15.1997C46.7768 10.478 43.0781 6.08721 37.9816 6.10703ZM37.9816 6.10703C37.9816 6.10703 37.9817 6.10703 37.9818 6.10703V6.23203M37.9816 6.10703C37.9815 6.10703 37.9814 6.10703 37.9813 6.10703L37.9818 6.23203M37.9818 6.23203C33.4004 6.23203 29.6555 10.1246 29.6365 14.9804L46.5363 15.1966C46.6503 10.5374 43.0004 6.21237 37.9818 6.23203Z" fill="white" stroke="#117DA1" stroke-width="0.25"/>
<path d="M27.8595 9.37815C27.2377 8.7006 26.6437 8.07217 26.0154 7.47802L26.0146 7.47735C25.8032 7.28054 25.5832 7.18828 25.3022 7.18828C24.7111 7.18828 24.1227 7.19047 23.5353 7.19266C22.3636 7.19702 21.1958 7.20137 20.0188 7.18828L20.0188 7.18828H20.0174C19.7371 7.18828 19.4689 7.2302 19.2262 7.47987C17.2417 9.35493 15.5625 11.4862 14.1697 13.8733C14.144 13.9138 14.1261 13.9583 14.1104 13.9979C14.1089 14.0016 14.1074 14.0054 14.1059 14.0092C14.0903 14.0485 14.0737 14.0901 14.0498 14.1396L13.9776 14.289L14.1411 14.3172C14.2468 14.3354 14.341 14.3455 14.4231 14.3544C14.4332 14.3555 14.4432 14.3565 14.453 14.3576C14.5411 14.3672 14.6119 14.376 14.6766 14.3922C14.8224 14.4462 14.9357 14.5184 15.0108 14.6116C15.0847 14.7034 15.1292 14.8249 15.1211 14.994L15.121 14.9943C15.1125 15.1803 15.0573 15.3284 14.9726 15.4276C14.8902 15.5242 14.7733 15.5828 14.6186 15.5828V15.5827L14.6134 15.5829C13.6666 15.622 12.7008 15.6221 11.7349 15.5829C11.5806 15.5748 11.4625 15.5082 11.3831 15.407C11.3022 15.304 11.2563 15.1579 11.2646 14.9864L11.2648 14.9864V14.9804C11.2648 14.7863 11.3204 14.626 11.4104 14.5212C11.4974 14.42 11.6237 14.3615 11.7934 14.3775L11.7962 14.3777C12.1027 14.3995 12.3256 14.3165 12.5017 14.1662C12.6703 14.0223 12.7894 13.8213 12.9018 13.6276L12.9018 13.6276L12.9025 13.6263C14.3607 11.0413 16.1211 8.73149 18.2596 6.69609L18.2602 6.69548C18.4058 6.55504 18.5105 6.42086 18.5304 6.25962C18.5503 6.09828 18.4812 5.94312 18.3745 5.77253L18.3745 5.77251L18.3729 5.7701C17.7661 4.84846 17.1971 3.90689 16.6266 2.96291L16.6266 2.96287L16.6242 2.95914C16.4177 2.64349 16.3617 2.3691 16.4178 2.13516C16.4741 1.90026 16.6499 1.67841 16.9654 1.48259C17.8764 0.925086 18.7792 0.708534 19.7526 1.19319L19.7529 1.19334C19.9898 1.31054 20.2167 1.35263 20.4389 1.31243C20.6596 1.27248 20.861 1.15393 21.0528 0.976454L21.0528 0.976465L21.0542 0.975122C21.2308 0.806572 21.4349 0.671556 21.6497 0.529528C21.7238 0.480473 21.7993 0.430581 21.8753 0.378185L21.8761 0.377589C22.3618 0.0368031 22.9306 0.0519076 23.4221 0.39561C23.4622 0.426604 23.5064 0.457085 23.5473 0.48526L23.5488 0.486307C23.5894 0.514301 23.6268 0.540121 23.6599 0.565385C24.0128 0.928387 24.38 1.14965 24.7879 1.22393C25.1972 1.29848 25.6313 1.22204 26.1109 1.01965C27.0256 0.637713 27.864 1.13761 28.625 1.76717C28.7958 1.91033 28.8757 2.0924 28.8818 2.29412C28.888 2.49912 28.8177 2.73036 28.6753 2.96082C28.3706 3.43351 28.0755 3.91581 27.7814 4.39665L27.7809 4.39746C27.4862 4.87907 27.1925 5.3592 26.8895 5.82934C26.7783 5.99677 26.7203 6.15293 26.7473 6.30972C26.7738 6.46399 26.8775 6.58636 27.0061 6.69906C27.2946 6.95854 27.5642 7.23302 27.8368 7.51068C27.9748 7.65116 28.1135 7.79246 28.2559 7.93303L28.2558 7.93314L28.2603 7.93716C28.3928 8.05592 28.453 8.15804 28.4644 8.25226C28.4754 8.34362 28.444 8.45753 28.3239 8.6091C28.2113 8.73681 28.1211 8.88302 28.0368 9.03746C27.9943 9.11531 27.9526 9.19662 27.9102 9.27936L27.9058 9.28804C27.8905 9.31785 27.8751 9.34787 27.8595 9.37815ZM27.2876 2.44635L27.2877 2.44632L27.2853 2.44304C27.1403 2.24309 26.8841 2.15279 26.6402 2.17572L26.6401 2.17564L26.6358 2.1762C26.4768 2.19676 26.2929 2.2383 26.145 2.30385L26.145 2.30383L26.143 2.30472C25.6081 2.5527 25.1056 2.64384 24.6367 2.57224C24.1688 2.50082 23.722 2.26558 23.3004 1.83926C23.0785 1.6099 22.8509 1.48958 22.6105 1.50201C22.374 1.51424 22.1607 1.65364 21.9621 1.85891C21.5496 2.27588 21.1119 2.51103 20.6534 2.58468C20.1942 2.65845 19.7018 2.57217 19.1773 2.32473L19.1771 2.32466C18.9674 2.22606 18.7226 2.12833 18.4487 2.19819C18.3569 2.21825 18.2663 2.24228 18.1882 2.27607C18.1102 2.30983 18.0327 2.3584 17.9816 2.4346C17.8702 2.60106 17.9343 2.80867 18.0884 3.03789C18.6193 3.8419 19.1312 4.66526 19.6049 5.48835L19.6049 5.48836L19.6063 5.49064C19.7097 5.66179 19.8253 5.78004 19.9713 5.8525C20.1152 5.92394 20.2755 5.94417 20.4546 5.94417V5.94438L20.4618 5.94397C20.9701 5.91476 21.4984 5.91837 22.0367 5.92203C22.218 5.92327 22.4005 5.92451 22.5837 5.92451C22.8207 5.92451 23.0564 5.92232 23.2915 5.92012C23.7585 5.91576 24.2229 5.91143 24.6892 5.92443C24.91 5.93469 25.1059 5.90947 25.2802 5.81641C25.4554 5.72291 25.5941 5.56884 25.7156 5.34912C26.0297 4.78414 26.3726 4.24092 26.7187 3.69257C26.8517 3.48195 26.9851 3.27058 27.1175 3.05694C27.1343 3.03306 27.156 3.00834 27.1839 2.97641C27.1868 2.97315 27.1897 2.96981 27.1927 2.9664C27.2232 2.93145 27.2604 2.8883 27.2902 2.84061C27.3204 2.79225 27.3478 2.73178 27.3517 2.66068C27.3558 2.58712 27.3341 2.51502 27.2876 2.44635Z" fill="white" stroke="#117DA1" stroke-width="0.25"/>
<path d="M22.7655 29.875H22.7662H22.7759H22.7855H22.7952H22.8049H22.8146H22.8243H22.834H22.8437H22.8534H22.8631H22.8728H22.8825H22.8922H22.9019H22.9116H22.9213H22.931H22.9407H22.9504H22.9601H22.9698H22.9796H22.9893H22.999H23.0087H23.0184H23.0281H23.0378H23.0475H23.0572H23.0669H23.0766H23.0863H23.096H23.1057H23.1154H23.1252H23.1349H23.1446H23.1543H23.164H23.1737H23.1834H23.1931H23.2028H23.2126H23.2223H23.232H23.2417H23.2514H23.2611H23.2708H23.2806H23.2903H23.3H23.3097H23.3194H23.3291H23.3388H23.3486H23.3583H23.368H23.3777H23.3874H23.3972H23.4069H23.4166H23.4263H23.436H23.4457H23.4555H23.4652H23.4749H23.4846H23.4944H23.5041H23.5138H23.5235H23.5332H23.543H23.5527H23.5624H23.5721H23.5819H23.5916H23.6013H23.611H23.6208H23.6305H23.6402H23.6499H23.6597H23.6694H23.6791H23.6888H23.6986H23.7083H23.718H23.7278H23.7375H23.7472H23.7569H23.7667H23.7764H23.7861H23.7959H23.8056H23.8153H23.825H23.8348H23.8445H23.8542H23.864H23.8737H23.8834H23.8932H23.9029H23.9126H23.9224H23.9321H23.9418H23.9516H23.9613H23.971H23.9808H23.9905H24.0002H24.01H24.0197H24.0294H24.0392H24.0489H24.0586H24.0684H24.0781H24.0879H24.0976H24.1073H24.1171H24.1268H24.1365H24.1463H24.156H24.1657H24.1755H24.1852H24.195H24.2047H24.2144H24.2242H24.2339H24.2437H24.2534H24.2631H24.2729H24.2826H24.2924H24.3021H24.3118H24.3216H24.3313H24.3411H24.3508H24.3605H24.3703H24.38H24.3898H24.3995H24.4092H24.419H24.4287H24.4385H24.4482H24.4579H24.4677H24.4774H24.4872H24.4969H24.5067H24.5164H24.5261H24.5359H24.5456H24.5554H24.5651H24.5749H24.5846H24.5943H24.6041H24.6138H24.6236H24.6333H24.6431H24.6528H24.6626H24.6723H24.682H24.6918H24.7015H24.7113H24.721H24.7308H24.7405H24.7503H24.76H24.7697H24.7795H24.7892H24.799H24.8087H24.8185H24.8282H24.838H24.8477H24.8575H24.8672H24.8769H24.8867H24.8964H24.9062H24.9159H24.9257H24.9354H24.9452H24.9549H24.9647H24.9744H24.9841H24.9939H25.0036H25.0134H25.0231H25.0329H25.0426H25.0524H25.0621H25.0719H25.0816H25.0914H25.1011H25.1108H25.1206H25.1303H25.1401H25.1498H25.1596H25.1693H25.1791H25.1888H25.1986H25.2083H25.2181H25.2278H25.2375H25.2473H25.257H25.2668H25.2765H25.2863H25.296H25.3058H25.3155H25.3253H25.335H25.3448H25.3545H25.3642H25.374H25.3837H25.3935H25.4032H25.413H25.4227H25.4325H25.4422H25.452H25.4617H25.4714H25.4812H25.4909H25.5007H25.5104H25.5202H25.5299H25.5397H25.5494H25.5592H25.5689H25.5786H25.5884H25.5981H25.6079H25.6176H25.6274H25.6371H25.6469H25.6566H25.6663H25.6761H25.6858H25.6956H25.7053H25.7151H25.7248H25.7345H25.7443H25.754H25.7638H25.7735H25.7833H25.793H25.8027H25.8125H25.8222H25.832H25.8417H25.8515H25.8612H25.8709H25.8807H25.8904H25.9002H25.9099H25.9196H25.9294H25.9391H25.9489H25.9586H25.9684H25.9781H25.9878H25.9976H26.0073H26.0171H26.0268H26.0365H26.0463H26.056H26.0657H26.0755H26.0852H26.095H26.1047H26.1144H26.1242H26.1339H26.1437H26.1534H26.1631H26.1729H26.1826H26.1923H26.2021H26.2118H26.2215H26.2313H26.241H26.2508H26.2605H26.2702H26.28H26.2897H26.2994H26.3092H26.3189H26.3286H26.3384H26.3481H26.3578H26.3676H26.3773H26.387H26.3968H26.4065H26.4162H26.426H26.4357H26.4454H26.4552H26.4649H26.4746H26.4843H26.4941H26.5038H26.5135H26.5233H26.533H26.5427H26.5525H26.5622H26.5719H26.5816H26.5914H26.6011H26.6108H26.6205H26.6303H26.64H26.6497H26.6595H26.6692H26.6789H26.6886H26.6984H26.7081H26.7178H26.7275H26.7372H26.747H26.7567H26.7664H26.7761H26.7859H26.7956H26.8053H26.815H26.8248H26.8345H26.8442H26.8539H26.8636H26.8734H26.8831H26.8928H26.9025H26.9122H26.9219H26.9317H26.9414H26.9511H26.9608H26.9705H26.9803H26.99H26.9997H27.0094H27.0191H27.0288H27.0385H27.0483H27.058H27.0677H27.0774H27.0871H27.0968H27.1065H27.1162H27.126H27.1357H27.1454H27.1551H27.1648H27.1745H27.1842H27.1939H27.2036H27.2133H27.2231H27.2328H27.2425H27.2522H27.2619H27.2716H27.2813H27.291H27.3007H27.3104H27.3201H27.3298H27.3395H27.3492H27.3589H27.3686H27.3783H27.388H27.3977H27.4074H27.4171H27.4268H27.4365H27.4462H27.4559H27.4656H27.4753H27.485H27.4947H27.5044H27.5141H27.5238H27.5335H27.5432H27.5529H27.5626H27.5723H27.582H27.5917H27.6014H27.6111H27.6207H27.6304H27.6401C28.7735 29.875 29.7897 29.5493 30.6773 28.8034L30.6778 28.8031C31.4481 28.1618 32.1247 27.4235 32.7075 26.5876C32.7078 26.5872 32.708 26.5869 32.7083 26.5865L32.721 26.5673C32.8628 26.3546 32.9638 26.2029 33.0265 26.0831C33.0921 25.9577 33.1002 25.8946 33.0906 25.8531C33.0809 25.8112 33.0453 25.7573 32.9309 25.6715C32.8246 25.5916 32.6725 25.4999 32.4614 25.3726L32.4254 25.3509C32.2634 25.2625 32.19 25.2492 32.1452 25.2605C32.103 25.2711 32.0447 25.3149 31.9504 25.4806C31.9502 25.4808 31.9501 25.481 31.95 25.4812L31.8413 25.4194C31.3851 26.2451 30.7387 26.9332 30.0354 27.5623L22.7655 29.875ZM22.7655 29.875V29.8161H22.6405C22.0123 29.8161 21.3845 29.8183 20.7569 29.8204C19.503 29.8248 18.2501 29.8292 16.9965 29.8161L22.7655 29.875Z" fill="white" stroke="#117DA1" stroke-width="0.25"/>
<path d="M25.2345 15.5505H25.2346C25.2346 14.6604 24.6403 13.7203 23.6371 13.2864L23.636 13.286L23.636 13.286C23.5008 13.226 23.3717 13.1571 23.2826 13.0459C23.1892 12.9293 23.1521 12.783 23.1626 12.5957C23.1714 12.3644 23.1298 12.1807 23.0412 12.0579C22.9572 11.9415 22.8179 11.8616 22.5841 11.8616C22.3307 11.8616 22.1823 11.9469 22.094 12.07C22.0008 12.1998 21.9588 12.393 21.9676 12.6349C21.9778 12.8062 21.9533 12.9436 21.8688 13.0554C21.7883 13.162 21.666 13.2267 21.5322 13.286L21.5317 13.2862C20.4616 13.7551 19.8985 14.7262 19.9714 15.9358C20.0437 17.0358 20.7241 17.6942 21.5708 18.278C21.8498 18.4651 22.1433 18.6267 22.4429 18.7916C22.5147 18.8311 22.5868 18.8708 22.6592 18.9111C23.031 19.1181 23.4054 19.339 23.7474 19.6219L23.7487 19.623L23.7487 19.6231C24.0881 19.9121 24.2936 20.2366 24.3519 20.5951C24.41 20.9531 24.3182 21.3263 24.0992 21.7071C23.7104 22.3844 22.9718 22.7014 22.2179 22.5539L22.2173 22.5537C21.4738 22.4042 20.9257 21.7854 20.8251 20.9321L20.8249 20.9303L20.8249 20.9303C20.7973 20.6638 20.7343 20.4563 20.6256 20.3194C20.5232 20.1903 20.3689 20.1098 20.1176 20.1184C19.9247 20.1265 19.7942 20.214 19.7129 20.3706C19.6269 20.536 19.5921 20.7875 19.6287 21.1194C19.7753 22.3503 20.4293 23.1591 21.5127 23.6339L21.5169 23.6357L21.5169 23.6358C21.6593 23.7045 21.7842 23.7742 21.8682 23.8836C21.9562 23.9981 21.9867 24.1382 21.9867 24.3185C21.9867 24.5404 22.0319 24.7273 22.1251 24.8577C22.2137 24.9819 22.3557 25.0691 22.5864 25.0781C22.8407 25.0777 22.9877 24.9959 23.0748 24.8764C23.1671 24.7498 23.2095 24.5575 23.2006 24.305C23.1905 24.1448 23.21 23.9936 23.2874 23.8656C23.3665 23.7347 23.4951 23.6457 23.6673 23.5901L23.67 23.5892L23.67 23.5893C24.7343 23.2721 25.2819 22.4545 25.5227 21.3815C25.7596 20.3265 25.4528 19.4299 24.6323 18.7322L24.632 18.732C24.2314 18.3898 23.7978 18.1315 23.3358 17.8563C23.3051 17.838 23.2742 17.8196 23.2431 17.8011C23.2429 17.8009 23.2427 17.8008 23.2424 17.8007L23.3065 17.6933C22.8312 17.4181 22.337 17.1232 21.8807 16.789L25.2345 15.5505ZM25.2345 15.5505L25.2346 15.5544C25.2438 15.8474 25.1968 16.053 25.1081 16.1866C25.0239 16.3134 24.8912 16.3916 24.6843 16.4088L25.2345 15.5505Z" fill="white" stroke="#117DA1" stroke-width="0.25"/>
<path d="M7.62244 18.9388H7.63547H7.6485H7.66153H7.67456H7.6876H7.70063H7.71366H7.72669H7.73973H7.75276H7.76579H7.77882H7.79185H7.80489H7.81792H7.83095H7.84398H7.85701H7.87005H7.88308H7.89611H7.90914H7.92217H7.93521H7.94824H7.96127H7.9743H7.98733H8.00037H8.0134H8.02643H8.03946H8.05249H8.06553H8.07856H8.09159H8.10462H8.11765H8.13068H8.14371H8.15675H8.16978H8.18281H8.19584H8.20887H8.2219H8.23493H8.24796H8.261H8.27403H8.28706H8.30009H8.31312H8.32615H8.33918H8.35221H8.36524H8.37827H8.39131H8.40434H8.41737H8.4304H8.44343H8.45646H8.46949H8.48252H8.49555H8.50858H8.52161H8.53464H8.54767H8.5607H8.57373H8.58676H8.59979H8.61282H8.62585H8.63888H8.65191H8.66494H8.67797H8.691H8.70403H8.71706H8.73008H8.74311H8.75614H8.76917H8.7822H8.79523H8.80826H8.82129H8.83432H8.84734H8.86037H8.8734H8.88643H8.89946H8.91248H8.92551H8.93854H8.95157H8.9646H8.97762H8.99065H9.00368H9.01671H9.02973H9.04276H9.05579H9.06881H9.08184H9.09487H9.10789H9.12092H9.13395H9.14697H9.16H9.17303H9.18605H9.19908H9.2121H9.22513H9.23816H9.25118H9.26421H9.27723H9.29026H9.30328H9.31631H9.32933H9.34236H9.35538H9.36841H9.38143H9.39446H9.40748H9.4205H9.43353H9.44655H9.45958H9.4726H9.48562H9.49865H9.51167H9.52469H9.53772H9.55074H9.56376H9.57679H9.58981H9.60283H9.61585H9.62887H9.6419H9.65492H9.66794H9.68096H9.69398H9.707H9.72003H9.73305H9.74607H9.75909H9.77211H9.78513H9.79815H9.81117H9.82419H9.83721H9.85023H9.86325H9.87627H9.88929H9.90231H9.91533H9.92835H9.94137H9.95438H9.9674H9.98042H9.99344H10.0065H10.0195H10.0325H10.0455H10.0585H10.0715H10.0846H10.0976H10.1106H10.1236H10.1366H10.1496H10.1627H10.1757H10.1887H10.2017H10.2147H10.2277H10.2408H10.2538H10.2668H10.2798H10.2928H10.3058H10.3188H10.3319H10.3449H10.3579H10.3709H10.3839H10.3969H10.4099H10.4229H10.436H10.449H10.462H10.475H10.488H10.501H10.514H10.527H10.5401H10.5531H10.5661H10.5791H10.5921H10.6051H10.6181H10.6311H10.6441H10.6571H10.6702H10.6832H10.6962H10.7092H10.7222H10.7352H10.7482H10.7612H10.7742H10.7872H10.8002H10.8132H10.8262H10.8393H10.8523H10.8653H10.8783H10.8913H10.9043H10.9173H10.9303H10.9433H10.9563H10.9693H10.9823H10.9953H11.0083H11.0213H11.0343H11.0473H11.0603H11.0733H11.0863H11.0993H11.1123H11.1253H11.1383H11.1513H11.1643H11.1773H11.1903H11.2033H11.2163H11.2293H11.2423H11.2553H11.2683H11.2813H11.2943H11.3073H11.3203H11.3333H11.3463H11.3593H11.3723H11.3853H11.3983H11.4113H11.4243H11.4373H11.4503H11.4633H11.4763H11.4893H11.5023H11.5153H11.5283H11.5413H11.5543H11.5672H11.5802H11.5932H11.6062H11.6192H11.6322H11.6452H11.6582H11.6712H11.6842H11.6972H11.7102H11.7231H11.7361H11.7491H11.7621H11.7751H11.7881H11.8011H11.8141H11.8271H11.84H11.853H11.866H11.879H11.892H11.905H11.918H11.931H11.9439H11.9569H11.9699H11.9829H11.9959H12.0089H12.0218H12.0348H12.0478H12.0608H12.0738H12.0868H12.0997H12.1127H12.1257H12.1387H12.1517H12.1646H12.1776H12.1906H12.2036H12.2166H12.2295H12.2425H12.2555H12.2685H12.2815H12.2944H12.3074H12.3204H12.3334H12.3463H12.3593H12.3723H12.3853H12.3982H12.4112H12.4242H12.4372H12.4501H12.4631H12.4761H12.4891H12.502H12.515H12.528H12.541H12.5539H12.5669H12.5799H12.5928H12.6058H12.6188H12.6317H12.6447H12.6577H12.6706H12.6836H12.6966H12.7096H12.7225H12.7355H12.7485H12.7614H12.7744H12.7873H12.8003H12.8133H12.8262H12.8392H12.8522H12.8651H12.8781H12.8911H12.904H12.917H12.9299H12.9429H12.9559H12.9688H12.9818H12.9947H13.0077H13.0207H13.0336H13.0466H13.0595H13.0725H13.0855H13.0984H13.1114H13.1243H13.1373H13.1502H13.1632H13.1762H13.1891H13.2021H13.215H13.228H13.2409H13.2539H13.2668H13.2798H13.2927H13.3057H13.3186H13.3316H13.3445H13.3575H13.3704H13.3834H13.3963H13.4093H13.4222H13.4352H13.4481H13.4611H13.474H13.487H13.4999H13.5128H13.5258H13.5387H13.5517H13.5646H13.5776H13.5905H13.6035H13.6164H13.6293H13.6423H13.6552H13.6682H13.6811H13.694H13.707H13.7199H13.7329H13.7458H13.7587H13.7717H13.7846H13.7975H13.8105H13.8234H13.8363H13.8493H13.8622H13.8752H13.8881H13.901H13.914H13.9269H13.9398H13.9527H13.9657H13.9786H13.9915H14.0045H14.0174H14.0303H14.0433H14.0562H14.0691H14.082H14.095H14.1079H14.1208H14.1337H14.1467H14.1596H14.1725H14.1854H14.1984H14.2113H14.2242H14.2371H14.2501H14.263H14.2759C14.4588 18.9388 14.6162 18.945 14.7453 18.9963C14.8642 19.0436 14.967 19.1327 15.0319 19.3255C15.1014 19.5321 15.1011 19.7116 15.0462 19.8486C14.993 19.9815 14.8824 20.0898 14.6964 20.1488C14.5073 20.2018 14.2975 20.2026 14.0858 20.2026H14.0607H14.0357H14.0106H13.9856H13.9605H13.9354H13.9104H13.8853H13.8602H13.8352H13.8101H13.7851H13.76H13.7349H13.7099H13.6848H13.6598H13.6347H13.6096H13.5846H13.5595H13.5344H13.5094H13.4843H13.4593H13.4342H13.4091H13.3841H13.359H13.3339H13.3089H13.2838H13.2588H13.2337H13.2086H13.1836H13.1585H13.1335H13.1084H13.0833H13.0583H13.0332H13.0081H12.9831H12.958H12.933H12.9079H12.8828H12.8578H12.8327H12.8076H12.7826H12.7575H12.7325H12.7074H12.6823H12.6573H12.6322H12.6072H12.5821H12.557H12.532H12.5069H12.4818H12.4568H12.4317H12.4067H12.3816H12.3565H12.3315H12.3064H12.2813H12.2563H12.2312H12.2062H12.1811H12.156H12.131H12.1059H12.0809H12.0558H12.0307H12.0057H11.9806H11.9555H11.9305H11.9054H11.8804H11.8553H11.8302H11.8052H11.7801H11.755H11.73H11.7049H11.6799H11.6548H11.6297H11.6047H11.5796H11.5546H11.5295H11.5044H11.4794H11.4543H11.4292H11.4042H11.3791H11.3541H11.329H11.3039H11.2789H11.2538H11.2287H11.2037H11.1786H11.1536H11.1285H11.1034H11.0784H11.0533H11.0283H11.0032H10.9781H10.9531H10.928H10.9029H10.8779H10.8528H10.8278H10.8027H10.7776H10.7526H10.7275H10.7024H10.6774H10.6523H10.6273H10.6022H10.5771H10.5521H10.527H10.502H10.4769H10.4518H10.4268H10.4017H10.3766H10.3516H10.3265H10.3015H10.2764H10.2513H10.2263H10.2012H10.1762H10.1511H10.126H10.101H10.0759H10.0508H10.0258H10.0007H9.97565H9.95059H9.92553H9.90047H9.87541H9.85035H9.82528H9.80022H9.77516H9.7501H9.72504H9.69997H9.67491H9.64985H9.62479H9.59973H9.57467H9.5496H9.52454H9.49948H9.47442H9.44936H9.42429H9.39923H9.37417H9.34911H9.32405H9.29898H9.27392H9.24886H9.2238H9.19874H9.17367H9.14861H9.12355H9.09849H9.07343H9.04837H9.0233H8.99824H8.97318H8.94812H8.92306H8.89799H8.87293H8.84787H8.82281H8.79775H8.77268H8.74762H8.72256H8.6975H8.67244H8.64738H8.62231H8.59725H8.57219H8.54713H8.52207H8.497H8.47194H8.44688H8.42182H8.39676H8.37169H8.34663H8.32157H8.29651H8.27145H8.24638H8.22132H8.19626H8.1712H8.14614H8.12108H8.09601H8.07095H8.04589H8.02083H7.99577H7.9707H7.94564H7.92058H7.89552H7.87046H7.84539H7.82033H7.79527H7.77021H7.74515H7.72009H7.69502H7.66996H7.6449H7.61984H7.59478H7.56971H7.54465H7.51959H7.49453H7.46947H7.4444H7.41934H7.39428H7.36922H7.34416H7.3191H7.29403H7.26897H7.24391H7.21885H7.19379H7.16872H7.14366H7.1186H7.09354H7.06848H7.04341H7.01835H6.99329H6.96823H6.94317H6.91811H6.89304H6.86798H6.84292H6.81786H6.7928H6.76773H6.74267H6.71761H6.69255H6.66749H6.64242H6.61736H6.5923H6.56724H6.54218H6.51712H6.49205H6.46699H6.44193H6.41687H6.39181H6.36674H6.34168H6.31662H6.29156H6.2665H6.24143H6.21637H6.19131H6.16625H6.14119H6.11612H6.09106H6.066H6.04094H6.01588H5.99082H5.96575H5.94069H5.91563H5.89057H5.86551H5.84044H5.81538H5.79032H5.76526H5.7402H5.71513H5.69007H5.66501H5.63995H5.61489H5.58983H5.56476H5.5397H5.51464H5.48958H5.46452H5.43945H5.41439H5.38933H5.36427H5.33921H5.31414H5.28908H5.26402H5.23896H5.2139H5.18884H5.16377H5.13871H5.11365H5.08859H5.06353H5.03846H5.0134H4.98834H4.96328H4.93822H4.91315H4.88809H4.86303H4.83797H4.81291H4.78785H4.76278H4.73772H4.71266H4.6876H4.66254H4.63747H4.61241H4.58735H4.56229H4.53723H4.51216H4.4871H4.46204H4.43698H4.41192H4.38685H4.36179H4.33673H4.31167H4.28661H4.26155H4.23648H4.21142H4.18636H4.1613H4.13624H4.11117H4.08611H4.06105H4.03599H4.01093H3.98586H3.9608H3.93574H3.91068H3.88562H3.86056H3.83549H3.81043H3.78537H3.76031H3.73525H3.71018H3.68512H3.66006H3.635H3.60994H3.58487H3.55981H3.53475H3.50969H3.48463H3.45957H3.4345H3.40944H3.38438H3.35932H3.33426H3.30919H3.28413H3.25907H3.23401H3.20895H3.18388H3.15882H3.13376H3.1087H3.08364H3.05858H3.03351H3.00845H2.98339H2.95833H2.93327H2.9082H2.88314H2.85808H2.83302H2.80796H2.78289H2.75783H2.73277H2.70771H2.68265H2.65758H2.63252H2.60746H2.5824H2.55734H2.53228H2.50721H2.48215H2.45709H2.43203H2.40697H2.3819H2.35684H2.33178H2.30672H2.28166H2.25659H2.23153H2.20647H2.18141H2.15635H2.13129H2.10622H2.08116H2.0561H2.03104H2.00598H1.98091H1.95585H1.93079H1.90573H1.88067H1.8556H1.83054H1.80548H1.78042H1.75536H1.7303H1.70523H1.68017H1.65511H1.63005H1.60499H1.57992H1.55486H1.5298H1.50474H1.47968H1.45461H1.42955H1.40449H1.37943H1.35437H1.32931H1.30424H1.27918H1.25412C1.04385 20.2026 0.854849 20.2017 0.649411 20.1311C0.459788 20.0624 0.318378 19.9964 0.228585 19.9055C0.147609 19.8236 0.0990591 19.7112 0.123484 19.5176C0.149061 19.3148 0.223689 19.1737 0.328531 19.0827C0.433667 18.9915 0.582684 18.9388 0.778872 18.9388H0.781211H0.78355H0.785889H0.788229H0.790568H0.792907H0.795246H0.797585H0.799924H0.802263H0.804602H0.806941H0.809281H0.81162H0.813959H0.816298H0.818637H0.820976H0.823315H0.825654H0.827993H0.830332H0.832672H0.835011H0.83735H0.839689H0.842028H0.844367H0.846706H0.849045H0.851384H0.853724H0.856063H0.858402H0.860741H0.86308H0.865419H0.867758H0.870097H0.872436H0.874776H0.877115H0.879454H0.881793H0.884132H0.886471H0.88881H0.891149H0.893488H0.895828H0.898167H0.900506H0.902845H0.905184H0.907523H0.909862H0.912201H0.91454H0.916879H0.919219H0.921558H0.923897H0.926236H0.928575H0.930914H0.933253H0.935592H0.937931H0.940271H0.94261H0.944949H0.947288H0.949627H0.951966H0.954305H0.956644H0.958983H0.961323H0.963662H0.966001H0.96834H0.970679H0.973018H0.975357H0.977696H0.980035H0.982375H0.984714H0.987053H0.989392H0.991731H0.99407H0.996409H0.998748H1.00109H1.00343H1.00577H1.0081H1.01044H1.01278H1.01512H1.01746H1.0198H1.02214H1.02448H1.02682H1.02916H1.0315H1.03383H1.03617H1.03851H1.04085H1.04319H1.04553H1.04787H1.05021H1.05255H1.05489H1.05723H1.05957H1.0619H1.06424H1.06658H1.06892H1.07126H1.0736H1.07594H1.07828H1.08062H1.08296H1.0853H1.08763H1.08997H1.09231H1.09465H1.09699H1.09933H1.10167H1.10401H1.10635H1.10869H1.11103H1.11336H1.1157H1.11804H1.12038H1.12272H1.12506H1.1274H1.12974H1.13208H1.13442H1.13676H1.13909H1.14143H1.14377H1.14611H1.14845H1.15079H1.15313H1.15547H1.15781H1.16015H1.16249H1.16482H1.16716H1.1695H1.17184H1.17418H1.17652H1.17886H1.1812H1.18354H1.18588H1.18822H1.19056H1.19289H1.19523H1.19757H1.19991H1.20225H1.20459H1.20693H1.20927H1.21161H1.21395H1.21629H1.21862H1.22096H1.2233H1.22564H1.22798H1.23032H1.23266H1.235H1.23734H1.23968H1.24202H1.24435H1.24669H1.24903H1.25137H1.25371H1.25605H1.25839H1.26073H1.26307H1.26541H1.26775H1.27008H1.27242H1.27476H1.2771H1.27944H1.28178H1.28412H1.28646H1.2888H1.29114H1.29348H1.29582H1.29815H1.30049H1.30283H1.30517H1.30751H1.30985H1.31219H1.31453H1.31687H1.31921H1.32155H1.32388H1.32622H1.32856H1.3309H1.33324H1.33558H1.33792H1.34026H1.3426H1.34494H1.34728H1.34961H1.35195H1.35429H1.35663H1.35897H1.36131H1.36365H1.36599H1.36833H1.37067H1.37301H1.37534H1.37768H1.38002H1.38236H1.3847H1.38704H1.38938H1.39172H1.39406H1.3964H1.39874H1.40108H1.40341H1.40575H1.40809H1.41043H1.41277H1.41511H1.41745H1.41979H1.42213H1.42447H1.42681H1.42914H1.43148H1.43382H1.43616H1.4385H1.44084H1.44318H1.44552H1.44786H1.4502H1.45254H1.45487H1.45721H1.45955H1.46189H1.46423H1.46657H1.46891H1.47125H1.47359H1.47593H1.47827H1.4806H1.48294H1.48528H1.48762H1.48996H1.4923H1.49464H1.49698H1.49932H1.50166H1.504H1.50633H1.50867H1.51101H1.51335H1.51569H1.51803H1.52037H1.52271H1.52505H1.52739H1.52973H1.53207H1.5344H1.53674H1.53908H1.54142H1.54376H1.5461H1.54844H1.55078H1.55312H1.55546H1.5578H1.56013H1.56247H1.56481H1.56715H1.56949H1.57183H1.57417H1.57651H1.57885H1.58119H1.58353H1.58586H1.5882H1.59054H1.59288H1.59522H1.59756H1.5999H1.60224H1.60458H1.60692H1.60926H1.61159H1.61393H1.61627H1.61861H1.62095H1.62329H1.62563H1.62797H1.63031H1.63265H1.63499H1.63732H1.63966H1.642H1.64434H1.64668H1.64902H1.65136H1.6537H1.65604H1.65838H1.66072H1.66306H1.66539H1.66773H1.67007H1.67241H1.67475H1.67709H1.67943H1.68177H1.68411H1.68645H1.68879H1.69112H1.69346H1.6958H1.69814H1.70048H1.70282H1.70516H1.7075H1.70984H1.71218H1.71452H1.71685H1.71919H1.72153H1.72387H1.72621H1.72855H1.73089H1.73323H1.73557H1.73791H1.74025H1.74258H1.74492H1.74726H1.7496H1.75194H1.75428H1.75662H1.75896H1.7613H1.76364H1.76598H1.76832H1.77065H1.77299H1.77533H1.77767H1.78001H1.78235H1.78469H1.78703H1.78937H1.79171H1.79405H1.79638H1.79872H1.80106H1.8034H1.80574H1.80808H1.81042H1.81276H1.8151H1.81744H1.81978H1.82211H1.82445H1.82679H1.82913H1.83147H1.83381H1.83615H1.83849H1.84083H1.84317H1.84551H1.84784H1.85018H1.85252H1.85486H1.8572H1.85954H1.86188H1.86422H1.86656H1.8689H1.87124H1.87357H1.87591H1.87825H1.88059H1.88293H1.88527H1.88761H1.88995H1.89229H1.89463H1.89697H1.89931H1.90164H1.90398H1.90632H1.90866H1.911H1.91334H1.91568H1.91802H1.92036H1.9227H1.92504H1.92737H1.92971H1.93205H1.93439H1.93673H1.93907H1.94141H1.94375H1.94609H1.94843H1.95077H1.9531H1.95544H1.95778H1.96012H1.96246H1.9648H1.96714H1.96948H1.97182H1.97416H1.9765H1.98763H1.99877H2.00991H2.02105H2.03218H2.04332H2.05446H2.06559H2.07673H2.08786H2.09899H2.11013H2.12126H2.13239H2.14353H2.15466H2.16579H2.17692H2.18805H2.19918H2.21031H2.22144H2.23257H2.2437H2.25483H2.26595H2.27708H2.28821H2.29933H2.31046H2.32158H2.33271H2.34383H2.35496H2.36608H2.3772H2.38833H2.39945H2.41057H2.42169H2.43281H2.44393H2.45505H2.46617H2.47729H2.48841H2.49953H2.51065H2.52177H2.53288H2.544H2.55512H2.56623H2.57735H2.58846H2.59958H2.61069H2.6218H2.63292H2.64403H2.65514H2.66625H2.67737H2.68848H2.69959H2.7107H2.72181H2.73292H2.74402H2.75513H2.76624H2.77735H2.78846H2.79956H2.81067H2.82177H2.83288H2.84398H2.85509H2.86619H2.8773H2.8884H2.8995H2.9106H2.92171H2.93281H2.94391H2.95501H2.96611H2.97721H2.98831H2.99941H3.01051H3.0216H3.0327H3.0438H3.05489H3.06599H3.07709H3.08818H3.09928H3.11037H3.12146H3.13256H3.14365H3.15474H3.16584H3.17693H3.18802H3.19911H3.2102H3.22129H3.23238H3.24347H3.25456H3.26565H3.27674H3.28782H3.29891H3.31H3.32108H3.33217H3.34325H3.35434H3.36542H3.37651H3.38759H3.39867H3.40976H3.42084H3.43192H3.443H3.45408H3.46516H3.47624H3.48732H3.4984H3.50948H3.52056H3.53164H3.54272H3.55379H3.56487H3.57594H3.58702H3.5981H3.60917H3.62025H3.63132H3.64239H3.65347H3.66454H3.67561H3.68668H3.69775H3.70883H3.7199H3.73097H3.74204H3.7531H3.76417H3.77524H3.78631H3.79738H3.80844H3.81951H3.83058H3.84164H3.85271H3.86377H3.87484H3.8859H3.89696H3.90803H3.91909H3.93015H3.94121H3.95228H3.96334H3.9744H3.98546H3.99652H4.00758H4.01864H4.02969H4.04075H4.05181H4.06287H4.07392H4.08498H4.09603H4.10709H4.11814H4.1292H4.14025H4.15131H4.16236H4.17341H4.18446H4.19552H4.20657H4.21762H4.22867H4.23972H4.25077H4.26182H4.27287H4.28392H4.29496H4.30601H4.31706H4.3281H4.33915H4.3502H4.36124H4.37229H4.38333H4.39437H4.40542H4.41646H4.4275H4.43855H4.44959H4.46063H4.47167H4.48271H4.49375H4.50479H4.51583H4.52687H4.53791H4.54894H4.55998H4.57102H4.58206H4.59309H4.60413H4.61516H4.6262H4.63723H4.64827H4.6593H4.67033H4.68137H4.6924H4.70343H4.71446H4.72549H4.73652H4.74755H4.75858H4.76961H4.78064H4.79167H4.8027H4.81372H4.82475H4.83578H4.8468H4.85783H4.86885H4.87988H4.8909H4.90193H4.91295H4.92397H4.935H4.94602H4.95704H4.96806H4.97908H4.9901H5.00112H5.01214H5.02316H5.03418H5.0452H5.05622H5.06723H5.07825H5.08927H5.10028H5.1113H5.12231H5.13333H5.14434H5.15536H5.16637H5.17738H5.1884H5.19941H5.21042H5.22143H5.23244H5.24345H5.25446H5.26547H5.27648H5.28749H5.2985H5.30951H5.32052H5.33152H5.34253H5.35354H5.36454H5.37555H5.38655H5.39756H5.40856H5.41956H5.43057H5.44157H5.45257H5.46357H5.47457H5.48557H5.49658H5.50758H5.51857H5.52957H5.54057H5.55157H5.56257H5.57357H5.58456H5.59556H5.60656H5.61755H5.62855H5.63954H5.65054H5.66153H5.67252H5.68352H5.69451H5.7055H5.71649H5.72748H5.73848H5.74947H5.76046H5.77145H5.78243H5.79342H5.80441H5.8154H5.82639H5.83737H5.84836H5.85935H5.87033H5.88132H5.8923H5.90329H5.91427H5.92525H5.93624H5.94722H5.9582H5.96918H5.98017H5.99115H6.00213H6.01311H6.02409H6.03507H6.04604H6.05702H6.068H6.07898H6.08995H6.10093H6.11191H6.12288H6.13386H6.14483H6.15581H6.16678H6.17775H6.18873H6.1997H6.21067H6.22164H6.23262H6.24359H6.25456H6.26553H6.2765H6.28747H6.29843H6.3094H6.32037H6.33134H6.3423H6.35327H6.36424H6.3752H6.38617H6.39713H6.4081H6.41906H6.43002H6.44099H6.45195H6.46291H6.47387H6.48484H6.4958H6.50676H6.51772H6.52868H6.53964H6.55059H6.56155H6.57251H6.58347H6.59442H6.60538H6.61634H6.62729H6.63825H6.6492H6.66016H6.67111H6.68206H6.69302H6.70397H6.71492H6.72587H6.73683H6.74778H6.75873H6.76968H6.78063H6.79158H6.80252H6.81347H6.82442H6.83537H6.84631H6.85726H6.86821H6.87915H6.8901H6.90104H6.91199H6.92293H6.93387H6.94482H6.95576H6.9667H6.97764H6.98859H6.99953H7.01047H7.02141H7.03235H7.04329H7.05422H7.06516H7.0761H7.08704H7.09797H7.10891H7.11985H7.13078H7.14172H7.15265H7.16359H7.17452H7.18545H7.19639H7.20732H7.21825H7.22918H7.24012H7.25105H7.26198H7.27291H7.28384H7.29476H7.30569H7.31662H7.32755H7.33848H7.3494H7.36033H7.37126H7.38218H7.39311H7.40403H7.41496H7.42588H7.4368H7.44773H7.45865H7.46957H7.48049H7.49141H7.50234H7.51326H7.52418H7.5351H7.54601H7.55693H7.56785H7.57877H7.58969H7.6006H7.61152H7.62244Z" fill="white" stroke="#117DA1" stroke-width="0.25"/>
<path d="M6.90078 15.622H6.89789H6.89499H6.89209H6.8892H6.8863H6.8834H6.8805H6.8776H6.8747H6.8718H6.8689H6.866H6.8631H6.8602H6.8573H6.85439H6.85149H6.84859H6.84568H6.84278H6.83987H6.83697H6.83406H6.83116H6.82825H6.82534H6.82244H6.81953H6.81662H6.81371H6.81081H6.8079H6.80499H6.80208H6.79917H6.79626H6.79335H6.79044H6.78752H6.78461H6.7817H6.77879H6.77587H6.77296H6.77005H6.76713H6.76422H6.7613H6.75839H6.75547H6.75256H6.74964H6.74672H6.74381H6.74089H6.73797H6.73506H6.73214H6.72922H6.7263H6.72338H6.72046H6.71754H6.71462H6.7117H6.70878H6.70586H6.70294H6.70001H6.69709H6.69417H6.69125H6.68832H6.6854H6.68248H6.67955H6.67663H6.6737H6.67078H6.66785H6.66493H6.662H6.65908H6.65615H6.65322H6.6503H6.64737H6.64444H6.64151H6.63858H6.63566H6.63273H6.6298H6.62687H6.62394H6.62101H6.61808H6.61515H6.61222H6.60929H6.60636H6.60343H6.60049H6.59756H6.59463H6.5917H6.58876H6.58583H6.5829H6.57996H6.57703H6.5741H6.57116H6.56823H6.56529H6.56236H6.55942H6.55649H6.55355H6.55062H6.54768H6.54474H6.54181H6.53887H6.53593H6.533H6.53006H6.52712H6.52418H6.52124H6.51831H6.51537H6.51243H6.50949H6.50655H6.50361H6.50067H6.49773H6.49479H6.49185H6.48891H6.48597H6.48303H6.48009H6.47715H6.47421H6.47126H6.46832H6.46538H6.46244H6.4595H6.45655H6.45361H6.45067H6.44773H6.44478H6.44184H6.4389H6.43595H6.43301H6.43006H6.42712H6.42418H6.42123H6.41829H6.41534H6.4124H6.40945H6.40651H6.40356H6.40062H6.39767H6.39472H6.39178H6.38883H6.38589H6.38294H6.37999H6.37705H6.3741H6.37115H6.36821H6.36526H6.36231H6.35936H6.35642H6.35347H6.35052H6.34757H6.34463H6.34168H6.33873H6.33578H6.33283H6.32988H6.32694H6.32399H6.32104H6.31809H6.31514H6.31219H6.30924H6.30629H6.30334H6.30039H6.29744H6.29449H6.29154H6.28859H6.28564H6.28269H6.27974H6.27679H6.27384H6.27089H6.26794H6.26499H6.26204H6.25909H6.25614H6.25319H6.25024H6.24729H6.24434H6.24139H6.23844H6.23549H6.23254H6.22958H6.22663H6.22368H6.22073H6.21778H6.21483H6.21188H6.20893H6.20597H6.20302H6.20007H6.19712H6.19417H6.19122H6.18826H6.18531H6.18236H6.17941H6.17646H6.17351H6.17055H6.1676H6.16465H6.1617H6.15875H6.1558H6.15284H6.14989H6.14694H6.14399H6.14104H6.13809H6.13513H6.13218H6.12923H6.12628H6.12333H6.12038H6.11742H6.11447H6.11152H6.10857H6.10562H6.10267H6.09971H6.09676H6.09381H6.09086H6.08791H6.08496H6.08201H6.07906H6.0761H6.07315H6.0702H6.06725H6.0643H6.06135H6.0584H6.05545H6.0525H6.04954H6.04659H6.04364H6.04069H6.03774H6.03479H6.03184H6.02889H6.02594H6.02299H6.02004H6.01709H6.01414H6.01119H6.00824H6.00529H6.00234H5.99939H5.99644H5.99349H5.99054H5.98759H5.98465H5.9817H5.97875H5.9758H5.97285H5.9699H5.96695H5.964H5.96106H5.95811H5.95516H5.95221H5.94926H5.94632H5.94337H5.94042H5.93747H5.93453H5.93158H5.92863H5.92569H5.92274H5.91979H5.91685H5.9139H5.91095H5.90801H5.90506H5.90211H5.89917H5.89622H5.89328H5.89033H5.88739H5.88444H5.8815H5.87855H5.87561H5.87267H5.86972H5.86678H5.86383H5.86089H5.85795H5.855H5.85206H5.84912H5.84617H5.84323H5.84029H5.83735H5.8344H5.83146H5.82852H5.82558H5.82264H5.8197H5.81676H5.81381H5.81087H5.80793H5.80499H5.80205H5.79911H5.79617H5.79323H5.7903H5.78736H5.78442H5.78148H5.77854H5.7756H5.77267H5.76973H5.76679H5.76385H5.76092H5.75798H5.75504H5.75211H5.74917H5.74623H5.7433H5.74036H5.73743H5.73449H5.73156H5.72862H5.72569H5.72276H5.71982H5.71689H5.71395H5.71102H5.70809H5.70516H5.70222H5.69929H5.69636H5.69343H5.6905H5.68757H5.68464H5.68171H5.67878H5.67585H5.67292H5.66999H5.66706H5.66413H5.6612H5.65827H5.65534H5.65242H5.64949H5.64656H5.64364H5.64071H5.63778H5.63486H5.63193H5.62901H5.62608H5.62316H5.62023H5.61731H5.61439H5.61146H5.60854H5.60562H5.60269H5.59977H5.59685H5.59393H5.59101H5.58809H5.58516H5.58224H5.57932H5.57641H5.57349H5.57057H5.56765H5.56473H5.56181H5.55889H5.55598H5.55306H5.55014H5.54723H5.54431H5.5414H5.53848H5.53557H5.53265H5.52974H5.52682H5.52391H5.521H5.51809H5.51517H5.51226H5.50935H5.50644H5.50353H5.50062H5.49771H5.4948H5.49189H5.48898H5.48607H5.48316H5.48026H5.47735H5.47444H5.47153H5.46863H5.46572H5.46282H5.45991H5.45701H5.4541H5.4512H5.4483H5.44539H5.44249H5.43959H5.43669H5.43378H5.43088H5.42798H5.42508H5.42218H5.41928H5.41639H5.41349H5.41059H5.40769H5.40479H5.4019H5.399C5.1807 15.622 5.01893 15.5679 4.91095 15.4735C4.80528 15.3812 4.73452 15.2359 4.72559 15.0172C4.72605 14.7772 4.79439 14.625 4.90013 14.5304C5.00881 14.4333 5.17819 14.3779 5.41801 14.3779H5.4238H5.42959H5.43539H5.44118H5.44697H5.45276H5.45855H5.46433H5.47012H5.47591H5.4817H5.48749H5.49327H5.49906H5.50484H5.51063H5.51642H5.5222H5.52798H5.53377H5.53955H5.54533H5.55112H5.5569H5.56268H5.56846H5.57424H5.58003H5.58581H5.59159H5.59737H5.60314H5.60892H5.6147H5.62048H5.62626H5.63204H5.63781H5.64359H5.64936H5.65514H5.66092H5.66669H5.67247H5.67824H5.68401H5.68979H5.69556H5.70133H5.70711H5.71288H5.71865H5.72442H5.73019H5.73596H5.74174H5.74751H5.75328H5.75905H5.76481H5.77058H5.77635H5.78212H5.78789H5.79366H5.79942H5.80519H5.81096H5.81672H5.82249H5.82825H5.83402H5.83978H5.84555H5.85131H5.85708H5.86284H5.8686H5.87437H5.88013H5.88589H5.89166H5.89742H5.90318H5.90894H5.9147H5.92046H5.92622H5.93198H5.93774H5.9435H5.94926H5.95502H5.96078H5.96654H5.9723H5.97805H5.98381H5.98957H5.99533H6.00108H6.00684H6.0126H6.01835H6.02411H6.02986H6.03562H6.04138H6.04713H6.05288H6.05864H6.06439H6.07015H6.0759H6.08165H6.08741H6.09316H6.09891H6.10467H6.11042H6.11617H6.12192H6.12767H6.13342H6.13918H6.14493H6.15068H6.15643H6.16218H6.16793H6.17368H6.17943H6.18518H6.19093H6.19667H6.20242H6.20817H6.21392H6.21967H6.22542H6.23116H6.23691H6.24266H6.24841H6.25415H6.2599H6.26565H6.27139H6.27714H6.28288H6.28863H6.29438H6.30012H6.30587H6.31161H6.31736H6.3231H6.32885H6.33459H6.34034H6.34608H6.35182H6.35757H6.36331H6.36905H6.3748H6.38054H6.38628H6.39203H6.39777H6.40351H6.40925H6.415H6.42074H6.42648H6.43222H6.43796H6.44371H6.44945H6.45519H6.46093H6.46667H6.47241H6.47815H6.48389H6.48963H6.49538H6.50112H6.50686H6.5126H6.51834H6.52408H6.52982H6.53556H6.5413H6.54703H6.55277H6.55851H6.56425H6.56999H6.57573H6.58147H6.58721H6.59295H6.59869H6.60442H6.61016H6.6159H6.62164H6.62738H6.63312H6.63885H6.64459H6.65033H6.65607H6.66181H6.66754H6.67328H6.67902H6.68476H6.69049H6.69623H6.70197H6.70771H6.71344H6.71918H6.72492H6.73065H6.73639H6.74213H6.74786H6.7536H6.75934H6.76508H6.77081H6.77655H6.78229H6.78802H6.79376H6.7995H6.80523H6.81097H6.81671H6.82244H6.82818H6.83391H6.83965H6.84539H6.85112H6.85686H6.8626H6.86833H6.87407H6.87981H6.88554H6.89128H6.89702H6.90275H6.90849H6.91422H6.91996H6.9257H6.93143H6.93717H6.94291H6.94864H6.95438H6.96012H6.96585H6.97159H6.97733H6.98306H6.9888H6.99454H7.00027H7.00601H7.01175H7.01748H7.02322H7.02896H7.03469H7.04043H7.04617H7.0519H7.05764H7.06338H7.06912H7.07485H7.08059H7.08633H7.09206H7.0978H7.10354H7.10928H7.11501H7.12075H7.12649H7.13223H7.13797H7.1437H7.14944H7.15518H7.16092H7.16666H7.1724H7.17813H7.18387H7.18961H7.19535H7.20109H7.20683H7.21257H7.21831H7.22404H7.22978H7.23552H7.24126H7.247H7.25274H7.25848H7.26422H7.26996H7.2757H7.28144H7.28718H7.29292H7.29866H7.3044H7.31015H7.31589H7.32163H7.32737H7.33311H7.33885H7.34459H7.35033H7.35608H7.36182H7.36756H7.3733H7.37905H7.38479H7.39053H7.39627H7.40202H7.40776H7.4135H7.41925H7.42499H7.43073H7.43648H7.44222H7.44797H7.45371H7.45946H7.4652H7.47095H7.47669H7.48244H7.48818H7.49393H7.49967H7.50542H7.51117H7.51691H7.52266H7.52841H7.53415H7.5399H7.54565H7.55139H7.55714H7.56289H7.56864H7.57439H7.58013H7.58588H7.59163H7.59738H7.60313H7.60888H7.61463H7.62038H7.62613H7.63188H7.63763H7.64338H7.64913H7.65488H7.66064H7.66639H7.67214H7.67789H7.68364H7.6894H7.69515H7.7009H7.70666H7.71241H7.71816H7.72392H7.72967H7.73543H7.74118H7.74694H7.75269H7.75845H7.7642H7.76996H7.77572H7.78147H7.78723H7.79299H7.79875H7.8045H7.81026H7.81602H7.82178H7.82754H7.8333H7.83906H7.84481H7.85057H7.85633H7.8621H7.86786H7.87362H7.87938H7.88514H7.8909H7.89666H7.90243H7.90819H7.91395H7.91972H7.92548H7.93124H7.93701H7.94277H7.94854H7.9543H7.96007H7.96584H7.9716H7.97737H7.98314H7.9889H7.99467H8.00044H8.00621H8.01197H8.01774H8.02351H8.02928H8.03505H8.04082H8.04659H8.05236H8.05814H8.06391H8.06968H8.07545H8.08122H8.087H8.09277H8.09854H8.10432H8.11009H8.11587H8.12164H8.12742H8.13319H8.13897H8.14475H8.15052H8.1563H8.16208H8.16786H8.17363H8.17941H8.18519H8.19097H8.19675H8.20253H8.20831H8.21409H8.21988H8.22566H8.23144H8.23722H8.24301H8.24879H8.25457H8.26036H8.26614H8.27193H8.27771H8.2835H8.28929H8.29507H8.30086H8.30665H8.31243H8.31822H8.32401H8.3298H8.33559H8.34138H8.34717H8.35296H8.35875H8.36455C8.58284 14.3779 8.74462 14.4321 8.8526 14.5265C8.95827 14.6188 9.02903 14.7641 9.03796 14.9827C9.03748 15.2205 8.96573 15.3733 8.85707 15.4688C8.74523 15.5672 8.57481 15.622 8.34554 15.622H8.34275H8.33997H8.33718H8.3344H8.33161H8.32883H8.32604H8.32326H8.32047H8.31769H8.31491H8.31212H8.30934H8.30655H8.30377H8.30098H8.2982H8.29541H8.29263H8.28984H8.28706H8.28427H8.28149H8.2787H8.27592H8.27313H8.27035H8.26756H8.26478H8.26199H8.25921H8.25642H8.25364H8.25085H8.24807H8.24528H8.2425H8.23971H8.23693H8.23414H8.23136H8.22857H8.22579H8.223H8.22021H8.21743H8.21464H8.21186H8.20907H8.20629H8.2035H8.20071H8.19793H8.19514H8.19236H8.18957H8.18679H8.184H8.18121H8.17843H8.17564H8.17285H8.17007H8.16728H8.1645H8.16171H8.15892H8.15614H8.15335H8.15056H8.14778H8.14499H8.1422H8.13941H8.13663H8.13384H8.13105H8.12827H8.12548H8.12269H8.1199H8.11712H8.11433H8.11154H8.10875H8.10597H8.10318H8.10039H8.0976H8.09481H8.09203H8.08924H8.08645H8.08366H8.08087H8.07808H8.0753H8.07251H8.06972H8.06693H8.06414H8.06135H8.05856H8.05577H8.05298H8.05019H8.04741H8.04462H8.04183H8.03904H8.03625H8.03346H8.03067H8.02788H8.02509H8.0223H8.01951H8.01671H8.01392H8.01113H8.00834H8.00555H8.00276H7.99997H7.99718H7.99439H7.9916H7.9888H7.98601H7.98322H7.98043H7.97764H7.97484H7.97205H7.96926H7.96647H7.96367H7.96088H7.95809H7.9553H7.9525H7.94971H7.94692H7.94412H7.94133H7.93854H7.93574H7.93295H7.93015H7.92736H7.92457H7.92177H7.91898H7.91618H7.91339H7.91059H7.9078H7.905H7.90221H7.89941H7.89662H7.89382H7.89102H7.88823H7.88543H7.88264H7.87984H7.87704H7.87425H7.87145H7.86865H7.86586H7.86306H7.86026H7.85746H7.85467H7.85187H7.84907H7.84627H7.84347H7.84067H7.83788H7.83508H7.83228H7.82948H7.82668H7.82388H7.82108H7.81828H7.81548H7.81268H7.80988H7.80708H7.80428H7.80148H7.79868H7.79588H7.79308H7.79027H7.78747H7.78467H7.78187H7.77907H7.77626H7.77346H7.77066H7.76786H7.76505H7.76225H7.75945H7.75664H7.75384H7.75104H7.74823H7.74543H7.74262H7.73982H7.73701H7.73421H7.7314H7.7286H7.72579H7.72299H7.72018H7.71738H7.71457H7.71176H7.70896H7.70615H7.70334H7.70054H7.69773H7.69492H7.69211H7.6893H7.6865H7.68369H7.68088H7.67807H7.67526H7.67245H7.66964H7.66683H7.66402H7.66121H7.6584H7.65559H7.65278H7.64997H7.64716H7.64435H7.64154H7.63873H7.63591H7.6331H7.63029H7.62748H7.62466H7.62185H7.61904H7.61622H7.61341H7.6106H7.60778H7.60497H7.60215H7.59934H7.59652H7.59371H7.59089H7.58808H7.58526H7.58244H7.57963H7.57681H7.57399H7.57118H7.56836H7.56554H7.56272H7.55991H7.55709H7.55427H7.55145H7.54863H7.54581H7.54299H7.54017H7.53735H7.53453H7.53171H7.52889H7.52607H7.52325H7.52043H7.51761H7.51478H7.51196H7.50914H7.50632H7.50349H7.50067H7.49785H7.49502H7.4922H7.48937H7.48655H7.48372H7.4809H7.47807H7.47525H7.47242H7.4696H7.46677H7.46394H7.46112H7.45829H7.45546H7.45263H7.44981H7.44698H7.44415H7.44132H7.43849H7.43566H7.43283H7.43H7.42717H7.42434H7.42151H7.41868H7.41585H7.41302H7.41018H7.40735H7.40452H7.40169H7.39885H7.39602H7.39319H7.39035H7.38752H7.38468H7.38185H7.37901H7.37618H7.37334H7.37051H7.36767H7.36484H7.362H7.35916H7.35632H7.35349H7.35065H7.34781H7.34497H7.34213H7.33929H7.33645H7.33361H7.33077H7.32793H7.32509H7.32225H7.31941H7.31657H7.31373H7.31088H7.30804H7.3052H7.30235H7.29951H7.29667H7.29382H7.29098H7.28813H7.28529H7.28244H7.2796H7.27675H7.2739H7.27106H7.26821H7.26536H7.26251H7.25967H7.25682H7.25397H7.25112H7.24827H7.24542H7.24257H7.23972H7.23687H7.23402H7.23117H7.22831H7.22546H7.22261H7.21976H7.2169H7.21405H7.2112H7.20834H7.20549H7.20263H7.19978H7.19692H7.19407H7.19121H7.18835H7.1855H7.18264H7.17978H7.17692H7.17407H7.17121H7.16835H7.16549H7.16263H7.15977H7.15691H7.15405H7.15119H7.14832H7.14546H7.1426H7.13974H7.13687H7.13401H7.13115H7.12828H7.12542H7.12255H7.11969H7.11682H7.11396H7.11109H7.10822H7.10536H7.10249H7.09962H7.09675H7.09388H7.09102H7.08815H7.08528H7.08241H7.07954H7.07666H7.07379H7.07092H7.06805H7.06518H7.0623H7.05943H7.05656H7.05368H7.05081H7.04793H7.04506H7.04218H7.03931H7.03643H7.03356H7.03068H7.0278H7.02492H7.02204H7.01917H7.01629H7.01341H7.01053H7.00765H7.00477H7.00188H6.999H6.99612H6.99324H6.99036H6.98747H6.98459H6.98171H6.97882H6.97594H6.97305H6.97017H6.96728H6.96439H6.96151H6.95862H6.95573H6.95284H6.94995H6.94707H6.94418H6.94129H6.9384H6.93551H6.93261H6.92972H6.92683H6.92394H6.92105H6.91815H6.91526H6.91236H6.90947H6.90657H6.90368H6.90078Z" fill="white" stroke="#117DA1" stroke-width="0.25"/>
<path d="M37.8678 8.17822L37.8624 8.3031C37.8982 8.30465 37.9324 8.30607 37.9651 8.30742C38.1441 8.31485 38.2763 8.32033 38.3787 8.33406C38.5003 8.35036 38.5498 8.37528 38.5763 8.40273C38.6031 8.43048 38.6281 8.48321 38.6417 8.61155C38.6551 8.73857 38.6552 8.91248 38.6552 9.16118H38.6552L38.6553 9.16508C38.6742 9.77223 38.6742 10.3994 38.6742 11.0091V11.0121V11.0151V11.0181V11.0211V11.0241V11.0271V11.0301V11.0331V11.0361V11.0391V11.0421V11.0451V11.0481V11.0511V11.0541V11.0571V11.0601V11.0631V11.0661V11.0691V11.0721V11.0751V11.0781V11.0812V11.0842V11.0872V11.0902V11.0932V11.0962V11.0992V11.1022V11.1052V11.1082V11.1112V11.1142V11.1172V11.1203V11.1233V11.1263V11.1293V11.1323V11.1353V11.1383V11.1413V11.1444V11.1474V11.1504V11.1534V11.1564V11.1594V11.1624V11.1655V11.1685V11.1715V11.1745V11.1775V11.1805V11.1836V11.1866V11.1896V11.1926V11.1956V11.1987V11.2017V11.2047V11.2077V11.2107V11.2138V11.2168V11.2198V11.2228V11.2258V11.2289V11.2319V11.2349V11.2379V11.241V11.244V11.247V11.25V11.2531V11.2561V11.2591V11.2621V11.2652V11.2682V11.2712V11.2742V11.2773V11.2803V11.2833V11.2864V11.2894V11.2924V11.2954V11.2985V11.3015V11.3045V11.3076V11.3106V11.3136V11.3167V11.3197V11.3227V11.3258V11.3288V11.3318V11.3349V11.3379V11.3409V11.344V11.347V11.35V11.3531V11.3561V11.3591V11.3622V11.3652V11.3682V11.3713V11.3743V11.3774V11.3804V11.3834V11.3865V11.3895V11.3925V11.3956V11.3986V11.4017V11.4047V11.4077V11.4108V11.4138V11.4168V11.4199V11.4229V11.426V11.429V11.432V11.4351V11.4381V11.4412V11.4442V11.4473V11.4503V11.4533V11.4564V11.4594V11.4625V11.4655V11.4686V11.4716V11.4746V11.4777V11.4807V11.4838V11.4868V11.4899V11.4929V11.4959V11.499V11.502V11.5051V11.5081V11.5112V11.5142V11.5173V11.5203V11.5234V11.5264V11.5294V11.5325V11.5355V11.5386V11.5416V11.5447V11.5477V11.5508V11.5538V11.5569V11.5599V11.563V11.566V11.5691V11.5721V11.5752V11.5782V11.5813V11.5843V11.5874V11.5904V11.5935V11.5965V11.5995V11.6026V11.6056V11.6087V11.6117V11.6148V11.6178V11.6209V11.6239V11.627V11.63V11.6331V11.6361V11.6392V11.6422V11.6453V11.6484V11.6514V11.6545V11.6575V11.6606V11.6636V11.6667V11.6697V11.6728V11.6758V11.6789V11.6819V11.685V11.688V11.6911V11.6941V11.6972V11.7002V11.7033V11.7063V11.7094V11.7124V11.7155V11.7185V11.7216V11.7246V11.7277V11.7307V11.7338V11.7368V11.7399V11.743V11.746V11.7491V11.7521V11.7552V11.7582V11.7613V11.7643V11.7674V11.7704V11.7735V11.7765V11.7796V11.7826V11.7857V11.7887V11.7918V11.7948V11.7979V11.801V11.804V11.8071V11.8101V11.8132V11.8162V11.8193V11.8223V11.8254V11.8284V11.8315V11.8345V11.8376V11.8406V11.8437V11.8467V11.8498V11.8528V11.8559V11.8589V11.862V11.8651V11.8681V11.8712V11.8742V11.8773V11.8803V11.8834V11.8864V11.8895V11.8925V11.8956V11.8986V11.9017V11.9047V11.9078V11.9108V11.9139V11.9169V11.92V11.923V11.9261V11.9291V11.9322V11.9352V11.9383V11.9413V11.9444V11.9474V11.9505V11.9535V11.9566V11.9596V11.9627V11.9657V11.9688V11.9718V11.9749V11.9779V11.981V11.984V11.9871V11.9901V11.9932V11.9962V11.9993V12.0023V12.0054V12.0084V12.0115V12.0145V12.0176V12.0206V12.0236V12.0267V12.0297V12.0328V12.0358V12.0389V12.0419V12.045V12.048V12.0511V12.0541V12.0572V12.0602V12.0633V12.0663V12.0693V12.0724V12.0754V12.0785V12.0815V12.0846V12.0876V12.0907V12.0937V12.0967V12.0998V12.1028V12.1059V12.1089V12.112V12.115V12.118V12.1211V12.1241V12.1272V12.1302V12.1332V12.1363V12.1393V12.1424V12.1454V12.1485V12.1515V12.1545V12.1576V12.1606V12.1636V12.1667V12.1697V12.1728V12.1758V12.1788V12.1819V12.1849V12.188V12.191V12.194V12.1971V12.2001V12.2031V12.2062V12.2092V12.2122V12.2153V12.2183V12.2213V12.2244V12.2274V12.2305V12.2335V12.2365V12.2396V12.2426V12.2456V12.2486V12.2517V12.2547V12.2577V12.2608V12.2638V12.2668V12.2699V12.2729V12.2759V12.279V12.282V12.285V12.288V12.2911V12.2941V12.2971V12.3002V12.3032V12.3062V12.3092V12.3123V12.3153V12.3183V12.3213V12.3244V12.3274V12.3304V12.3334V12.3365V12.3395V12.3425V12.3455V12.3486V12.3516V12.3546V12.3576V12.3606V12.3637V12.3667V12.3697V12.3727V12.3757V12.3788V12.3818V12.3848V12.3878V12.3908V12.3939V12.3969V12.3999V12.4029V12.4059V12.4089V12.412V12.415V12.418V12.421V12.424V12.427V12.43V12.4331V12.4361V12.4391V12.4421V12.4451V12.4481V12.4511V12.4541V12.4571V12.4602V12.4632V12.4662V12.4692V12.4722V12.4752V12.4782V12.4812V12.4842V12.4872V12.4902V12.4932V12.4962V12.4992V12.5022V12.5052V12.5082V12.5113V12.5143V12.5173V12.5203V12.5233V12.5263V12.5293V12.5323V12.5353V12.5383V12.5413V12.5443V12.5472V12.5502V12.5532V12.5562V12.5592V12.5622C38.6742 12.6012 38.674 12.6403 38.6738 12.6795C38.6708 13.1839 38.6678 13.7071 39.1466 14.2022C39.6142 14.6857 39.4792 15.527 38.9264 16.0065L38.9262 16.0067C38.3663 16.4952 37.6235 16.4762 37.1007 15.9535L37.1006 15.9534C36.6073 15.4615 36.5316 14.6173 37.0246 14.1251L37.0261 14.1236C37.4434 13.692 37.4605 13.2332 37.4605 12.7588C37.4605 12.4311 37.4617 12.1019 37.4628 11.7717C37.4664 10.7778 37.47 9.77597 37.4415 8.78587C37.4416 8.56691 37.4639 8.45268 37.5125 8.39015C37.5523 8.33906 37.6357 8.29373 37.8626 8.30311L37.8678 8.17822ZM37.8678 8.17822C37.3925 8.15856 37.3165 8.35515 37.3165 8.78766L37.0123 16.0419C37.5826 16.612 38.4 16.6317 39.0083 16.1009C39.5977 15.5898 39.7687 14.6658 39.2365 14.1153C38.7942 13.6579 38.7964 13.1834 38.7989 12.6761C38.7991 12.6383 38.7992 12.6004 38.7992 12.5622V11.0091C38.7992 10.3997 38.7992 9.77062 38.7802 9.16118C38.7802 8.21602 38.7802 8.21602 37.969 8.18247C37.9366 8.18113 37.9028 8.17973 37.8678 8.17822Z" fill="white" stroke="#117DA1" stroke-width="0.25"/>
</g>
<defs>
<clipPath id="clip0_13_1113">
<rect width="48" height="30" fill="white"/>
</clipPath>
</defs>
</svg>
