<svg width="102" height="82" viewBox="0 0 102 82" fill="none" xmlns="http://www.w3.org/2000/svg">
<path d="M76 81H101V71C101 67.8827 100.028 64.8429 98.2207 62.3031C96.4131 59.7634 93.8591 57.8499 90.9137 56.8288C87.9684 55.8076 84.7781 55.7294 81.7863 56.6051C78.7945 57.4808 76.1499 59.2669 74.22 61.715M76 81H26M76 81V71C76 67.72 75.37 64.585 74.22 61.715M74.22 61.715C72.3632 57.0748 69.1588 53.0973 65.02 50.2956C60.8812 47.4939 55.9979 45.9965 51 45.9965C46.0021 45.9965 41.1188 47.4939 36.98 50.2956C32.8412 53.0973 29.6368 57.0748 27.78 61.715M26 81H1V71C1.00023 67.8827 1.97168 64.8429 3.77931 62.3031C5.58694 59.7634 8.14093 57.8499 11.0863 56.8288C14.0316 55.8076 17.2219 55.7294 20.2137 56.6051C23.2055 57.4808 25.8501 59.2669 27.78 61.715M26 81V71C26 67.72 26.63 64.585 27.78 61.715M66 16C66 19.9782 64.4196 23.7936 61.6066 26.6066C58.7936 29.4196 54.9782 31 51 31C47.0218 31 43.2064 29.4196 40.3934 26.6066C37.5804 23.7936 36 19.9782 36 16C36 12.0218 37.5804 8.20644 40.3934 5.3934C43.2064 2.58035 47.0218 1 51 1C54.9782 1 58.7936 2.58035 61.6066 5.3934C64.4196 8.20644 66 12.0218 66 16ZM96 31C96 33.6522 94.9464 36.1957 93.0711 38.0711C91.1957 39.9464 88.6522 41 86 41C83.3478 41 80.8043 39.9464 78.9289 38.0711C77.0536 36.1957 76 33.6522 76 31C76 28.3478 77.0536 25.8043 78.9289 23.9289C80.8043 22.0536 83.3478 21 86 21C88.6522 21 91.1957 22.0536 93.0711 23.9289C94.9464 25.8043 96 28.3478 96 31ZM26 31C26 33.6522 24.9464 36.1957 23.0711 38.0711C21.1957 39.9464 18.6522 41 16 41C13.3478 41 10.8043 39.9464 8.92893 38.0711C7.05357 36.1957 6 33.6522 6 31C6 28.3478 7.05357 25.8043 8.92893 23.9289C10.8043 22.0536 13.3478 21 16 21C18.6522 21 21.1957 22.0536 23.0711 23.9289C24.9464 25.8043 26 28.3478 26 31Z" stroke="white" stroke-width="2" stroke-linecap="round" stroke-linejoin="round"/>
</svg>
