<svg width="21" height="26" viewBox="0 0 21 26" fill="none" xmlns="http://www.w3.org/2000/svg">
<path d="M6.33333 13H14.3333M6.33333 18.3333H14.3333M17 25H3.66667C2.95942 25 2.28115 24.719 1.78105 24.219C1.28095 23.7189 1 23.0406 1 22.3333V3.66667C1 2.95942 1.28095 2.28115 1.78105 1.78105C2.28115 1.28095 2.95942 1 3.66667 1H11.1147C11.4683 1.00008 11.8073 1.1406 12.0573 1.39067L19.276 8.60933C19.5261 8.85932 19.6666 9.19841 19.6667 9.552V22.3333C19.6667 23.0406 19.3857 23.7189 18.8856 24.219C18.3855 24.719 17.7072 25 17 25Z" stroke="black" stroke-opacity="0.5" stroke-width="1.25" stroke-linecap="round" stroke-linejoin="round"/>
</svg>
