<svg width="34" height="42" viewBox="0 0 34 42" fill="none" xmlns="http://www.w3.org/2000/svg">
<path d="M22.8409 16.1743C24.5079 14.5073 25.4444 12.2464 25.4444 9.88889C25.4444 7.53141 24.5079 5.27048 22.8409 3.60349C21.174 1.9365 18.913 1 16.5556 1C14.1981 1 11.9372 1.9365 10.2702 3.60349C8.60317 5.27048 7.66667 7.53141 7.66667 9.88889C7.66667 12.2464 8.60317 14.5073 10.2702 16.1743C11.9372 17.8413 14.1981 18.7778 16.5556 18.7778C18.913 18.7778 21.174 17.8413 22.8409 16.1743Z" stroke="#117DA1" stroke-width="2" stroke-linecap="round" stroke-linejoin="round"/>
<path d="M5.55612 30.0006C8.47335 27.0833 12.43 25.4444 16.5556 25.4444C20.6811 25.4444 24.6378 27.0833 27.555 30.0006C30.4722 32.9178 32.1111 36.8744 32.1111 41H1C1 36.8744 2.63888 32.9178 5.55612 30.0006Z" stroke="#117DA1" stroke-width="2" stroke-linecap="round" stroke-linejoin="round"/>
</svg>
