<svg width="240" height="64" viewBox="0 0 240 64" fill="none" xmlns="http://www.w3.org/2000/svg">
<g filter="url(#filter0_d_3_107)">
<path d="M133 11C133 5.47715 137.477 1 143 1H225C230.523 1 235 5.47715 235 11V45C235 50.5228 230.523 55 225 55H143C137.477 55 133 50.5228 133 45V11Z" fill="white"/>
<path d="M225 0.5H143C137.201 0.5 132.5 5.20101 132.5 11V45C132.5 50.799 137.201 55.5 143 55.5H225C230.799 55.5 235.5 50.799 235.5 45V11C235.5 5.20101 230.799 0.5 225 0.5Z" stroke="white"/>
</g>
<g filter="url(#filter1_d_3_107)">
<path d="M107 11C107 5.47715 102.523 1 97 1H15C9.47715 1 5 5.47715 5 11V45C5 50.5228 9.47715 55 15 55H97C102.523 55 107 50.5228 107 45V11Z" fill="white"/>
<path d="M15 0.5H97C102.799 0.5 107.5 5.20101 107.5 11V45C107.5 50.799 102.799 55.5 97 55.5H15C9.20101 55.5 4.5 50.799 4.5 45V11C4.5 5.20101 9.20101 0.5 15 0.5Z" stroke="white"/>
</g>
<path fill-rule="evenodd" clip-rule="evenodd" d="M171.774 14.6355L166.989 44.7727H174.644L179.429 14.6355H171.774ZM160.549 14.6355L153.251 35.3636L152.387 30.9001L152.388 30.9016L152.198 29.9012C151.315 27.9501 149.269 24.2419 145.406 21.0773C144.264 20.1418 143.113 19.3435 142 18.6616L148.633 44.7727H156.609L168.788 14.6355H160.549ZM190.424 23.0022C190.424 19.5949 197.879 20.0327 201.155 21.8829L202.247 15.4102C202.247 15.4102 198.876 14.0961 195.362 14.0961C191.563 14.0961 182.542 15.7989 182.542 24.0728C182.542 31.8596 193.13 31.9564 193.13 36.0445C193.13 40.1327 183.634 39.4021 180.5 36.8232L179.361 43.5886C179.361 43.5886 182.779 45.2914 188.002 45.2914C193.225 45.2914 201.107 42.518 201.107 34.9739C201.107 27.1384 190.424 26.4087 190.424 23.0022ZM221.661 14.6355H215.506C212.664 14.6355 211.972 16.8815 211.972 16.8815L200.557 44.7727H208.535L210.131 40.2965H219.863L220.761 44.7727H227.789L221.661 14.6355ZM212.337 34.112L216.36 22.834L218.623 34.112H212.337Z" fill="#005BAC"/>
<path fill-rule="evenodd" clip-rule="evenodd" d="M148.886 16.6437C148.886 16.6437 148.574 14 145.243 14H133.142L133 14.4968C133 14.4968 138.817 15.6965 144.397 20.191C149.73 24.4867 151.47 29.8415 151.47 29.8415L148.886 16.6437Z" fill="#F6AC1D"/>
<path d="M97 28C97 41.2063 86.2 52 72.7 52C59.3286 52 48.4 41.2063 48.4 28C48.4 14.7937 59.2 4 72.5714 4C86.2 4 97 14.7937 97 28Z" fill="#FFB600"/>
<path d="M72.7 4C86.0714 4 97 14.7937 97 28C97 41.2063 86.2 52 72.7 52C59.3286 52 48.4 41.2063 48.4 28" fill="#F7981D"/>
<path d="M72.7 4C86.0714 4 97 14.7937 97 28C97 41.2063 86.2 52 72.7 52" fill="#FF8500"/>
<path d="M40.0428 4C26.8 4.12698 16 14.7937 16 28C16 41.2063 26.8 52 40.3 52C46.6 52 52.2571 49.5873 56.6286 45.7778C57.5286 45.0159 58.3 44.127 59.0714 43.2381H54.0571C53.4143 42.4762 52.7714 41.5873 52.2571 40.8254H60.8714C61.3857 40.0635 61.9 39.1746 62.2857 38.2857H50.8428C50.4571 37.5238 50.0714 36.6349 49.8143 35.746H63.1857C63.9571 33.3333 64.4714 30.7936 64.4714 28.127C64.4714 26.3492 64.2143 24.6984 63.9571 23.0476H49.0428C49.1714 22.1587 49.4286 21.3968 49.6857 20.5079H63.0571C62.8 19.619 62.4143 18.7302 62.0286 17.9683H50.7143C51.1 17.0794 51.6143 16.3175 52.1286 15.4286H60.7428C60.2286 14.5397 59.5857 13.6508 58.8143 12.8889H54.0571C54.8286 12 55.6 11.2381 56.5 10.4762C52.2571 6.53968 46.4714 4.25397 40.1714 4.25397C40.1714 4 40.1714 4 40.0428 4Z" fill="#FF5050"/>
<path d="M16 28C16 41.2063 26.8 52 40.3 52C46.6 52 52.2571 49.5873 56.6286 45.7778C57.5286 45.0159 58.3 44.127 59.0714 43.2381H54.0571C53.4143 42.4762 52.7714 41.5873 52.2571 40.8254H60.8714C61.3857 40.0635 61.9 39.1746 62.2857 38.2857H50.8428C50.4571 37.5238 50.0714 36.6349 49.8143 35.746H63.1857C63.9571 33.3333 64.4714 30.7936 64.4714 28.127C64.4714 26.3492 64.2143 24.6984 63.9571 23.0476H49.0428C49.1714 22.1587 49.4286 21.3968 49.6857 20.5079H63.0571C62.8 19.619 62.4143 18.7302 62.0286 17.9683H50.7143C51.1 17.0794 51.6143 16.3175 52.1286 15.4286H60.7428C60.2286 14.5397 59.5857 13.6508 58.8143 12.8889H54.0571C54.8286 12 55.6 11.2381 56.5 10.4762C52.2571 6.53968 46.4714 4.25397 40.1714 4.25397L40.0428 4.254" fill="#E52836"/>
<path d="M40.3 52C46.6 52 52.2571 49.5873 56.6286 45.7778C57.5286 45.0159 58.3 44.127 59.0714 43.2381H54.0571C53.4143 42.4762 52.7714 41.5873 52.2571 40.8254H60.8714C61.3857 40.0635 61.9 39.1746 62.2857 38.2857H50.8428C50.4571 37.5238 50.0714 36.6349 49.8143 35.746H63.1857C63.9571 33.3333 64.4714 30.7936 64.4714 28.127C64.4714 26.3492 64.2143 24.6984 63.9571 23.0476H49.0428C49.1714 22.1587 49.4286 21.3968 49.6857 20.5079H63.0571C62.8 19.619 62.4143 18.7302 62.0286 17.9683H50.7143C51.1 17.0794 51.6143 16.3175 52.1286 15.4286H60.7428C60.2286 14.5397 59.5857 13.6508 58.8143 12.8889H54.0571C54.8286 12 55.6 11.2381 56.5 10.4762C52.2571 6.53968 46.4714 4.25397 40.1714 4.25397L40.0428 4.254" fill="#CB2026"/>
<path d="M48.9143 34.0953L49.3 31.9366C49.1715 31.9366 48.9143 32.0635 48.6572 32.0635C47.7572 32.0635 47.6286 31.5556 47.7572 31.3016L48.5286 26.8572H49.9429L50.3286 24.4445H49.0429L49.3 22.9207H46.7286C46.7286 22.9207 45.1858 31.3016 45.1858 32.3175C45.1858 33.8413 46.0858 34.4762 47.2429 34.4762C48.0143 34.4762 48.6572 34.2223 48.9143 34.0953Z" fill="white"/>
<path d="M49.8143 30.0318C49.8143 33.5873 52.2571 34.4762 54.3143 34.4762C56.2429 34.4762 57.0143 34.0953 57.0143 34.0953L57.5286 31.6826C57.5286 31.6826 56.1143 32.3175 54.8286 32.3175C52 32.3175 52.5143 30.2857 52.5143 30.2857H57.7857C57.7857 30.2857 58.1714 28.635 58.1714 28C58.1714 26.3492 57.2714 24.3175 54.4429 24.3175C51.7429 24.0635 49.8143 26.8572 49.8143 30.0318ZM54.3143 26.3492C55.7286 26.3492 55.4714 28 55.4714 28.127H52.6429C52.6429 28 52.9 26.3492 54.3143 26.3492Z" fill="white"/>
<path d="M70.6428 34.0952L71.1571 31.3016C71.1571 31.3016 69.8714 31.9365 68.9714 31.9365C67.1714 31.9365 66.4 30.5397 66.4 29.0159C66.4 25.9683 67.9428 24.3175 69.7428 24.3175C71.0285 24.3175 72.0571 25.0794 72.0571 25.0794L72.4428 22.4127C72.4428 22.4127 70.9 21.7778 69.4857 21.7778C66.5285 21.7778 63.5714 24.3175 63.5714 29.1429C63.5714 32.3175 65.1143 34.4762 68.2 34.4762C69.2285 34.4762 70.6428 34.0952 70.6428 34.0952Z" fill="white"/>
<path d="M34.7714 24.0635C32.9714 24.0635 31.6857 24.5714 31.6857 24.5714L31.3 26.7302C31.3 26.7302 32.4571 26.2222 34.1285 26.2222C35.0285 26.2222 35.8 26.3492 35.8 27.1111C35.8 27.6191 35.6714 27.746 35.6714 27.746C35.6714 27.746 34.9 27.746 34.5143 27.746C32.3285 27.746 29.8857 28.6349 29.8857 31.5556C29.8857 33.8413 31.4285 34.3492 32.3285 34.3492C34.1285 34.3492 34.9 33.2064 35.0285 33.2064L34.9 34.2222H37.2143L38.2428 27.2381C38.2428 24.1905 35.6714 24.0635 34.7714 24.0635ZM35.2857 29.7778C35.2857 30.1587 35.0285 32.1905 33.4857 32.1905C32.7143 32.1905 32.4571 31.5556 32.4571 31.1746C32.4571 30.5397 32.8428 29.6508 34.7714 29.6508C35.1571 29.7778 35.2857 29.7778 35.2857 29.7778Z" fill="white"/>
<path d="M40.6857 34.3492C41.3286 34.3492 44.5428 34.4762 44.5428 31.0476C44.5428 27.873 41.4571 28.5079 41.4571 27.2381C41.4571 26.6032 41.9714 26.3492 42.8714 26.3492C43.2571 26.3492 44.6714 26.4762 44.6714 26.4762L45.0571 24.1905C45.0571 24.1905 44.1571 23.9365 42.6143 23.9365C40.6857 23.9365 38.7571 24.6984 38.7571 27.2381C38.7571 30.1587 41.9714 29.9048 41.9714 31.0476C41.9714 31.8095 41.0714 31.9365 40.4286 31.9365C39.2714 31.9365 38.1143 31.5555 38.1143 31.5555L37.7286 33.8413C37.8571 34.0952 38.5 34.3492 40.6857 34.3492Z" fill="white"/>
<path d="M91.9857 22.0317L91.4714 25.4603C91.4714 25.4603 90.4428 24.1905 89.0285 24.1905C86.7142 24.1905 84.6571 26.9841 84.6571 30.2857C84.6571 32.3174 85.6857 34.4762 87.8714 34.4762C89.4142 34.4762 90.3142 33.4603 90.3142 33.4603L90.1857 34.3492H92.7571L94.6857 22.1587L91.9857 22.0317ZM90.8285 28.7619C90.8285 30.1587 90.1857 31.9365 88.7714 31.9365C87.8714 31.9365 87.3571 31.1746 87.3571 29.9048C87.3571 27.873 88.2571 26.6032 89.4142 26.6032C90.3142 26.6032 90.8285 27.2381 90.8285 28.7619Z" fill="white"/>
<path d="M20.7571 34.2222L22.3 25.0794L22.5571 34.2222H24.3571L27.7 25.0794L26.2857 34.2222H28.9857L31.0428 22.0317H26.8L24.2285 29.5238L24.1 22.0317H20.3714L18.3143 34.2222H20.7571Z" fill="white"/>
<path d="M60.6143 34.2222C61.3857 30.0317 61.5143 26.6032 63.3143 27.2381C63.5714 25.5873 63.9571 24.9524 64.2143 24.3174C64.2143 24.3174 64.0857 24.3174 63.7 24.3174C62.5428 24.3174 61.6428 25.8413 61.6428 25.8413L61.9 24.4444H59.4571L57.7857 34.3492H60.6143V34.2222Z" fill="white"/>
<path d="M76.5571 24.0635C74.7571 24.0635 73.4714 24.5714 73.4714 24.5714L73.0857 26.7302C73.0857 26.7302 74.2428 26.2222 75.9142 26.2222C76.8142 26.2222 77.5857 26.3492 77.5857 27.1111C77.5857 27.6191 77.4571 27.746 77.4571 27.746C77.4571 27.746 76.6857 27.746 76.3 27.746C74.1142 27.746 71.6714 28.6349 71.6714 31.5556C71.6714 33.8413 73.2142 34.3492 74.1142 34.3492C75.9142 34.3492 76.6857 33.2064 76.8142 33.2064L76.6857 34.2222H79L80.0285 27.2381C80.1571 24.1905 77.4571 24.0635 76.5571 24.0635ZM77.2 29.7778C77.2 30.1587 76.9428 32.1905 75.4 32.1905C74.6285 32.1905 74.3714 31.5556 74.3714 31.1746C74.3714 30.5397 74.7571 29.6508 76.6857 29.6508C77.0714 29.7778 77.0714 29.7778 77.2 29.7778Z" fill="white"/>
<path d="M82.2143 34.2222C82.9857 30.0317 83.1143 26.6032 84.9143 27.2381C85.1714 25.5873 85.5571 24.9524 85.8143 24.3174C85.8143 24.3174 85.6857 24.3174 85.3 24.3174C84.1429 24.3174 83.2429 25.8413 83.2429 25.8413L83.5 24.4444H81.0571L79.3857 34.3492H82.2143V34.2222Z" fill="white"/>
<path d="M44.9286 32.3175C44.9286 33.8413 45.8286 34.4762 46.9857 34.4762C47.8857 34.4762 48.6572 34.2223 48.9143 34.0953L49.3 31.9366C49.1715 31.9366 48.9143 32.0635 48.6572 32.0635C47.7572 32.0635 47.6286 31.5556 47.7572 31.3016L48.5286 26.8572H49.9429L50.3286 24.4445H49.0429L49.3 22.9207" fill="#DCE5E5"/>
<path d="M51.1 30.0318C51.1 33.5873 52.2571 34.4762 54.3143 34.4762C56.2429 34.4762 57.0143 34.0953 57.0143 34.0953L57.5286 31.6826C57.5286 31.6826 56.1143 32.3175 54.8286 32.3175C52 32.3175 52.5143 30.2857 52.5143 30.2857H57.7857C57.7857 30.2857 58.1714 28.635 58.1714 28C58.1714 26.3492 57.2714 24.3175 54.4429 24.3175C51.7429 24.0635 51.1 26.8572 51.1 30.0318ZM54.3143 26.3492C55.7286 26.3492 55.9857 28 55.9857 28.127H52.6429C52.6429 28 52.9 26.3492 54.3143 26.3492Z" fill="#DCE5E5"/>
<path d="M70.6428 34.0952L71.1571 31.3016C71.1571 31.3016 69.8714 31.9365 68.9714 31.9365C67.1714 31.9365 66.4 30.5397 66.4 29.0159C66.4 25.9683 67.9428 24.3175 69.7428 24.3175C71.0285 24.3175 72.0571 25.0794 72.0571 25.0794L72.4428 22.4127C72.4428 22.4127 70.9 21.7778 69.4857 21.7778C66.5285 21.7778 64.8571 24.3175 64.8571 29.1429C64.8571 32.3175 65.1143 34.4762 68.2 34.4762C69.2285 34.4762 70.6428 34.0952 70.6428 34.0952Z" fill="#DCE5E5"/>
<path d="M31.3 26.8571C31.3 26.8571 32.4571 26.3492 34.1285 26.3492C35.0285 26.3492 35.8 26.4762 35.8 27.2381C35.8 27.746 35.6714 27.873 35.6714 27.873C35.6714 27.873 34.9 27.873 34.5143 27.873C32.3285 27.873 29.8857 28.7619 29.8857 31.6825C29.8857 33.9682 31.4285 34.4762 32.3285 34.4762C34.1285 34.4762 34.9 33.3333 35.0285 33.3333L34.9 34.3492H37.2143L38.2428 27.3651C38.2428 24.4444 35.6714 24.3174 34.6428 24.3174M36.5714 29.7778C36.5714 30.1587 35.0285 32.1905 33.4857 32.1905C32.7143 32.1905 32.4571 31.5556 32.4571 31.1746C32.4571 30.5397 32.8428 29.6508 34.7714 29.6508C35.1571 29.7778 36.5714 29.7778 36.5714 29.7778Z" fill="#DCE5E5"/>
<path d="M37.8572 34.0952C37.8572 34.0952 38.6286 34.3492 40.8143 34.3492C41.4572 34.3492 44.6715 34.4762 44.6715 31.0476C44.6715 27.873 41.5858 28.5079 41.5858 27.2381C41.5858 26.6032 42.1001 26.3492 43.0001 26.3492C43.3858 26.3492 44.8001 26.4762 44.8001 26.4762L45.1858 24.1905C45.1858 24.1905 44.2858 23.9365 42.7429 23.9365C40.8143 23.9365 40.1715 24.6984 40.1715 27.2381C40.1715 30.1587 42.1 29.9048 42.1 31.0476C42.1 31.8095 41.2001 31.9365 40.5572 31.9365" fill="#DCE5E5"/>
<path d="M91.4714 25.4603C91.4714 25.4603 90.4428 24.1905 89.0285 24.1905C86.7142 24.1905 85.9429 26.9841 85.9429 30.2857C85.9429 32.3175 85.6857 34.4762 87.8714 34.4762C89.4142 34.4762 90.3142 33.4603 90.3142 33.4603L90.1857 34.3492H92.7571L94.6857 22.1587M91.3429 28.7619C91.3429 30.1587 90.1857 31.9365 88.7714 31.9365C87.8714 31.9365 87.3571 31.1746 87.3571 29.9048C87.3571 27.873 88.2571 26.6032 89.4142 26.6032C90.3142 26.6032 91.3429 27.2381 91.3429 28.7619Z" fill="#DCE5E5"/>
<path d="M20.7571 34.2222L22.3 25.0794L22.5571 34.2222H24.3571L27.7 25.0794L26.2857 34.2222H28.9857L31.0428 22.0317H27.8285L24.2285 29.5238L24.1 22.0317H22.6857L18.3143 34.2222H20.7571Z" fill="#DCE5E5"/>
<path d="M57.9142 34.2222H60.6143C61.3857 30.0317 61.5143 26.6032 63.3143 27.2381C63.5714 25.5873 63.9571 24.9524 64.2143 24.3174C64.2143 24.3174 64.0857 24.3174 63.7 24.3174C62.5428 24.3174 61.6428 25.8413 61.6428 25.8413L61.9 24.4444" fill="#DCE5E5"/>
<path d="M73.0857 26.8571C73.0857 26.8571 74.2428 26.3492 75.9142 26.3492C76.8142 26.3492 77.5857 26.4762 77.5857 27.2381C77.5857 27.746 77.4571 27.873 77.4571 27.873C77.4571 27.873 76.6857 27.873 76.3 27.873C74.1142 27.873 71.6714 28.7619 71.6714 31.6825C71.6714 33.9682 73.2142 34.4762 74.1142 34.4762C75.9142 34.4762 76.6857 33.3333 76.8142 33.3333L76.6857 34.3492H79L80.0285 27.3651C80.0285 24.4444 77.4571 24.3174 76.4285 24.3174M78.3571 29.7778C78.3571 30.1587 76.8142 32.1905 75.2714 32.1905C74.5 32.1905 74.2428 31.5555 74.2428 31.1746C74.2428 30.5397 74.6285 29.6508 76.5571 29.6508C77.0714 29.7778 78.3571 29.7778 78.3571 29.7778Z" fill="#DCE5E5"/>
<path d="M79.5143 34.2222H82.2143C82.9857 30.0317 83.1143 26.6032 84.9143 27.2381C85.1714 25.5873 85.5571 24.9524 85.8143 24.3174C85.8143 24.3174 85.6857 24.3174 85.3 24.3174C84.1429 24.3174 83.2429 25.8413 83.2429 25.8413L83.5 24.4444" fill="#DCE5E5"/>
<defs>
<filter id="filter0_d_3_107" x="128" y="0" width="112" height="64" filterUnits="userSpaceOnUse" color-interpolation-filters="sRGB">
<feFlood flood-opacity="0" result="BackgroundImageFix"/>
<feColorMatrix in="SourceAlpha" type="matrix" values="0 0 0 0 0 0 0 0 0 0 0 0 0 0 0 0 0 0 127 0" result="hardAlpha"/>
<feOffset dy="4"/>
<feGaussianBlur stdDeviation="2"/>
<feComposite in2="hardAlpha" operator="out"/>
<feColorMatrix type="matrix" values="0 0 0 0 0 0 0 0 0 0 0 0 0 0 0 0 0 0 0.25 0"/>
<feBlend mode="normal" in2="BackgroundImageFix" result="effect1_dropShadow_3_107"/>
<feBlend mode="normal" in="SourceGraphic" in2="effect1_dropShadow_3_107" result="shape"/>
</filter>
<filter id="filter1_d_3_107" x="0" y="0" width="112" height="64" filterUnits="userSpaceOnUse" color-interpolation-filters="sRGB">
<feFlood flood-opacity="0" result="BackgroundImageFix"/>
<feColorMatrix in="SourceAlpha" type="matrix" values="0 0 0 0 0 0 0 0 0 0 0 0 0 0 0 0 0 0 127 0" result="hardAlpha"/>
<feOffset dy="4"/>
<feGaussianBlur stdDeviation="2"/>
<feComposite in2="hardAlpha" operator="out"/>
<feColorMatrix type="matrix" values="0 0 0 0 0 0 0 0 0 0 0 0 0 0 0 0 0 0 0.25 0"/>
<feBlend mode="normal" in2="BackgroundImageFix" result="effect1_dropShadow_3_107"/>
<feBlend mode="normal" in="SourceGraphic" in2="effect1_dropShadow_3_107" result="shape"/>
</filter>
</defs>
</svg>
