<svg width="42" height="42" viewBox="0 0 42 42" fill="none" xmlns="http://www.w3.org/2000/svg">
<path d="M18.7778 27.6667L12.1111 21M12.1111 21L18.7778 14.3333M12.1111 21H29.8889M1 21C1 18.3736 1.51732 15.7728 2.52241 13.3463C3.5275 10.9198 5.00069 8.71504 6.85786 6.85786C8.71504 5.00069 10.9198 3.5275 13.3463 2.52241C15.7728 1.51732 18.3736 1 21 1C23.6264 1 26.2272 1.51732 28.6537 2.52241C31.0802 3.5275 33.285 5.00069 35.1421 6.85786C36.9993 8.71504 38.4725 10.9198 39.4776 13.3463C40.4827 15.7728 41 18.3736 41 21C41 26.3043 38.8929 31.3914 35.1421 35.1421C31.3914 38.8929 26.3043 41 21 41C15.6957 41 10.6086 38.8929 6.85786 35.1421C3.10714 31.3914 1 26.3043 1 21Z" stroke="#117DA1" stroke-width="2" stroke-linecap="round" stroke-linejoin="round"/>
</svg>
