<svg width="25" height="32" viewBox="0 0 25 32" fill="none" xmlns="http://www.w3.org/2000/svg">
<path d="M7.66667 4.33333H4.33333C3.44928 4.33333 2.60143 4.68452 1.97631 5.30964C1.35119 5.93477 1 6.78261 1 7.66667V27.6667C1 28.5507 1.35119 29.3986 1.97631 30.0237C2.60143 30.6488 3.44928 31 4.33333 31H21C21.8841 31 22.7319 30.6488 23.357 30.0237C23.9821 29.3986 24.3333 28.5507 24.3333 27.6667V7.66667C24.3333 6.78261 23.9821 5.93477 23.357 5.30964C22.7319 4.68452 21.8841 4.33333 21 4.33333H17.6667M7.66667 4.33333C7.66667 5.21739 8.01786 6.06523 8.64298 6.69036C9.2681 7.31548 10.1159 7.66667 11 7.66667H14.3333C15.2174 7.66667 16.0652 7.31548 16.6904 6.69036C17.3155 6.06523 17.6667 5.21739 17.6667 4.33333M7.66667 4.33333C7.66667 3.44928 8.01786 2.60143 8.64298 1.97631C9.2681 1.35119 10.1159 1 11 1H14.3333C15.2174 1 16.0652 1.35119 16.6904 1.97631C17.3155 2.60143 17.6667 3.44928 17.6667 4.33333M12.6667 16H17.6667M12.6667 22.6667H17.6667M7.66667 16H7.68333M7.66667 22.6667H7.68333" stroke="white" stroke-linecap="round" stroke-linejoin="round"/>
</svg>
