<svg width="21" height="17" viewBox="0 0 21 17" fill="none" xmlns="http://www.w3.org/2000/svg">
<path d="M15.0625 16H19.75V14.125C19.75 13.5405 19.5678 12.9705 19.2289 12.4943C18.8899 12.0181 18.4111 11.6594 17.8588 11.4679C17.3066 11.2764 16.7084 11.2618 16.1474 11.426C15.5865 11.5901 15.0906 11.925 14.7287 12.3841M15.0625 16H5.6875M15.0625 16V14.125C15.0625 13.51 14.9444 12.9222 14.7287 12.3841M14.7287 12.3841C14.3806 11.514 13.7798 10.7682 13.0037 10.2429C12.2277 9.71761 11.3121 9.43684 10.375 9.43684C9.43789 9.43684 8.52228 9.71761 7.74625 10.2429C6.97023 10.7682 6.3694 11.514 6.02125 12.3841M5.6875 16H1V14.125C1.00004 13.5405 1.18219 12.9705 1.52112 12.4943C1.86005 12.0181 2.33892 11.6594 2.89117 11.4679C3.44342 11.2764 4.0416 11.2618 4.60257 11.426C5.16353 11.5901 5.6594 11.925 6.02125 12.3841M5.6875 16V14.125C5.6875 13.51 5.80562 12.9222 6.02125 12.3841M13.1875 3.8125C13.1875 4.55842 12.8912 5.27379 12.3637 5.80124C11.8363 6.32868 11.1209 6.625 10.375 6.625C9.62908 6.625 8.91371 6.32868 8.38626 5.80124C7.85882 5.27379 7.5625 4.55842 7.5625 3.8125C7.5625 3.06658 7.85882 2.35121 8.38626 1.82376C8.91371 1.29632 9.62908 1 10.375 1C11.1209 1 11.8363 1.29632 12.3637 1.82376C12.8912 2.35121 13.1875 3.06658 13.1875 3.8125ZM18.8125 6.625C18.8125 7.12228 18.615 7.59919 18.2633 7.95082C17.9117 8.30246 17.4348 8.5 16.9375 8.5C16.4402 8.5 15.9633 8.30246 15.6117 7.95082C15.26 7.59919 15.0625 7.12228 15.0625 6.625C15.0625 6.12772 15.26 5.65081 15.6117 5.29918C15.9633 4.94754 16.4402 4.75 16.9375 4.75C17.4348 4.75 17.9117 4.94754 18.2633 5.29918C18.615 5.65081 18.8125 6.12772 18.8125 6.625ZM5.6875 6.625C5.6875 7.12228 5.48996 7.59919 5.13833 7.95082C4.78669 8.30246 4.30978 8.5 3.8125 8.5C3.31522 8.5 2.83831 8.30246 2.48667 7.95082C2.13504 7.59919 1.9375 7.12228 1.9375 6.625C1.9375 6.12772 2.13504 5.65081 2.48667 5.29918C2.83831 4.94754 3.31522 4.75 3.8125 4.75C4.30978 4.75 4.78669 4.94754 5.13833 5.29918C5.48996 5.65081 5.6875 6.12772 5.6875 6.625Z" stroke="white" stroke-linecap="round" stroke-linejoin="round"/>
</svg>
