<svg width="39" height="32" viewBox="0 0 39 32" fill="none" xmlns="http://www.w3.org/2000/svg">
<path d="M29.125 31H38.5V27.25C38.4999 26.081 38.1356 24.9411 37.4578 23.9887C36.7799 23.0363 35.8222 22.3187 34.7177 21.9358C33.6132 21.5528 32.4168 21.5235 31.2949 21.8519C30.1729 22.1803 29.1812 22.8501 28.4575 23.7681M29.125 31H10.375M29.125 31V27.25C29.125 26.02 28.8887 24.8444 28.4575 23.7681M28.4575 23.7681C27.7612 22.028 26.5595 20.5365 25.0075 19.4859C23.4554 18.4352 21.6242 17.8737 19.75 17.8737C17.8758 17.8737 16.0446 18.4352 14.4925 19.4859C12.9405 20.5365 11.7388 22.028 11.0425 23.7681M10.375 31H1V27.25C1.00009 26.081 1.36438 24.9411 2.04224 23.9887C2.7201 23.0363 3.67785 22.3187 4.78234 21.9358C5.88684 21.5528 7.08321 21.5235 8.20513 21.8519C9.32706 22.1803 10.3188 22.8501 11.0425 23.7681M10.375 31V27.25C10.375 26.02 10.6112 24.8444 11.0425 23.7681M25.375 6.625C25.375 8.11684 24.7824 9.54758 23.7275 10.6025C22.6726 11.6574 21.2418 12.25 19.75 12.25C18.2582 12.25 16.8274 11.6574 15.7725 10.6025C14.7176 9.54758 14.125 8.11684 14.125 6.625C14.125 5.13316 14.7176 3.70242 15.7725 2.64752C16.8274 1.59263 18.2582 1 19.75 1C21.2418 1 22.6726 1.59263 23.7275 2.64752C24.7824 3.70242 25.375 5.13316 25.375 6.625ZM36.625 12.25C36.625 13.2446 36.2299 14.1984 35.5266 14.9016C34.8234 15.6049 33.8696 16 32.875 16C31.8804 16 30.9266 15.6049 30.2234 14.9016C29.5201 14.1984 29.125 13.2446 29.125 12.25C29.125 11.2554 29.5201 10.3016 30.2234 9.59835C30.9266 8.89509 31.8804 8.5 32.875 8.5C33.8696 8.5 34.8234 8.89509 35.5266 9.59835C36.2299 10.3016 36.625 11.2554 36.625 12.25ZM10.375 12.25C10.375 13.2446 9.97991 14.1984 9.27665 14.9016C8.57339 15.6049 7.61956 16 6.625 16C5.63044 16 4.67661 15.6049 3.97335 14.9016C3.27009 14.1984 2.875 13.2446 2.875 12.25C2.875 11.2554 3.27009 10.3016 3.97335 9.59835C4.67661 8.89509 5.63044 8.5 6.625 8.5C7.61956 8.5 8.57339 8.89509 9.27665 9.59835C9.97991 10.3016 10.375 11.2554 10.375 12.25Z" stroke="white" stroke-linecap="round" stroke-linejoin="round"/>
</svg>
