<svg width="32" height="32" viewBox="0 0 32 32" fill="none" xmlns="http://www.w3.org/2000/svg">
<path d="M11 27.6667V17.6667C11 16.7826 10.6488 15.9348 10.0237 15.3096C9.39857 14.6845 8.55072 14.3333 7.66667 14.3333H4.33333C3.44928 14.3333 2.60143 14.6845 1.97631 15.3096C1.35119 15.9348 1 16.7826 1 17.6667V27.6667C1 28.5507 1.35119 29.3986 1.97631 30.0237C2.60143 30.6488 3.44928 31 4.33333 31H7.66667C8.55072 31 9.39857 30.6488 10.0237 30.0237C10.6488 29.3986 11 28.5507 11 27.6667ZM11 27.6667V11C11 10.1159 11.3512 9.2681 11.9763 8.64298C12.6014 8.01786 13.4493 7.66667 14.3333 7.66667H17.6667C18.5507 7.66667 19.3986 8.01786 20.0237 8.64298C20.6488 9.2681 21 10.1159 21 11V27.6667M11 27.6667C11 28.5507 11.3512 29.3986 11.9763 30.0237C12.6014 30.6488 13.4493 31 14.3333 31H17.6667C18.5507 31 19.3986 30.6488 20.0237 30.0237C20.6488 29.3986 21 28.5507 21 27.6667M21 27.6667V4.33333C21 3.44928 21.3512 2.60143 21.9763 1.97631C22.6014 1.35119 23.4493 1 24.3333 1H27.6667C28.5507 1 29.3986 1.35119 30.0237 1.97631C30.6488 2.60143 31 3.44928 31 4.33333V27.6667C31 28.5507 30.6488 29.3986 30.0237 30.0237C29.3986 30.6488 28.5507 31 27.6667 31H24.3333C23.4493 31 22.6014 30.6488 21.9763 30.0237C21.3512 29.3986 21 28.5507 21 27.6667Z" stroke="white" stroke-linecap="round" stroke-linejoin="round"/>
</svg>
