<svg width="26" height="26" viewBox="0 0 26 26" fill="none" xmlns="http://www.w3.org/2000/svg">
<path fill-rule="evenodd" clip-rule="evenodd" d="M6.5 0C10.0898 0 13 2.91015 13 6.5V0H19.5C23.0898 0 26 2.91015 26 6.5C26 10.0898 23.0898 13 19.5 13C23.0898 13 26 15.9102 26 19.5C26 21.2825 25.2825 22.8974 24.1205 24.0717L24.0962 24.0962L24.0746 24.1177C22.9001 25.2813 21.284 26 19.5 26C17.7282 26 16.1219 25.291 14.9493 24.1413C14.9341 24.1264 14.9189 24.1113 14.9038 24.0962C14.8895 24.082 14.8754 24.0677 14.8613 24.0533C13.7101 22.8806 13 21.2732 13 19.5C13 23.0898 10.0898 26 6.5 26C2.91015 26 0 23.0898 0 19.5V13H6.5C2.91015 13 0 10.0898 0 6.5C0 2.91015 2.91015 0 6.5 0ZM11.7 6.5C11.7 9.37189 9.37189 11.7 6.5 11.7V1.3C9.37189 1.3 11.7 3.62812 11.7 6.5ZM24.7 19.5C24.7 16.6281 22.3719 14.3 19.5 14.3C16.6281 14.3 14.3 16.6281 14.3 19.5H24.7ZM1.3 14.3V19.5C1.3 22.3719 3.62812 24.7 6.5 24.7C9.37189 24.7 11.7 22.3719 11.7 19.5V14.3H1.3ZM14.3 11.7V1.3H19.5C22.3719 1.3 24.7 3.62812 24.7 6.5C24.7 9.37189 22.3719 11.7 19.5 11.7H14.3Z" fill="#5417D7"/>
</svg>
