<svg width="40" height="40" viewBox="0 0 40 40" fill="none" xmlns="http://www.w3.org/2000/svg">
<g clip-path="url(#clip0_13_1027)">
<path d="M0 19.9819C0.01202 8.97031 8.94044 0.0287987 19.9387 -5.26875e-05C31.0067 -0.028904 39.9928 8.94387 40 19.9675C40.0072 31.0584 31.0283 40.024 19.9171 39.9999C8.92842 39.9759 0.00240399 31.0127 0 19.9819ZM0.918324 19.9867C0.9039 30.479 9.46211 39.0671 19.9507 39.0887C30.4634 39.108 39.0648 30.5535 39.0865 20.0516C39.1081 9.53292 30.5619 0.944829 20.0493 0.918382C9.51499 0.891935 0.932748 9.44396 0.918324 19.9867Z" fill="white"/>
<path d="M35.7036 20.0037C35.7012 28.6639 28.6431 35.7132 19.9791 35.7084C11.2574 35.7036 4.30266 28.5749 4.29785 20.0253C4.29545 11.3194 11.3391 4.2869 20.0248 4.29652C28.6719 4.30614 35.706 11.3531 35.7036 20.0037ZM11.0218 31.7462C11.0338 31.7414 11.0459 31.7366 11.0579 31.7318C11.0579 31.3639 11.0579 30.996 11.0579 30.6282C11.0579 30.4407 11.0579 30.4407 10.8824 30.3902C9.77414 30.0584 9.11545 28.9163 9.37748 27.7815C9.63231 26.6756 10.7333 25.935 11.856 26.1154C12.9065 26.2837 13.659 27.1372 13.7167 28.2263C13.7672 29.2049 13.0724 30.1425 12.0916 30.407C12.0002 30.431 11.9738 30.4671 11.9738 30.5609C11.9786 31.1379 11.9786 31.7149 11.9738 32.292C11.9738 32.3857 12.0074 32.4362 12.082 32.4819C13.0628 33.0998 14.0965 33.6023 15.1903 33.9822C15.3586 34.0399 15.5293 34.0928 15.7096 34.1529C15.712 34.0952 15.7144 34.0591 15.7144 34.023C15.7144 30.1161 15.7144 26.2091 15.7144 22.3022C15.7144 22.0714 15.6663 21.8478 15.5581 21.641C15.5101 21.5496 15.4644 21.4486 15.3923 21.3765C15.0389 21.0135 14.6759 20.6576 14.3177 20.3018C13.1878 21.088 11.9257 20.6937 11.3055 19.9291C10.6492 19.1213 10.6396 17.9673 11.2959 17.1522C11.9425 16.3468 13.0772 16.1039 14.0004 16.5752C14.4619 16.8108 14.8057 17.1666 15.0148 17.6427C15.3057 18.3111 15.2576 18.9674 14.9163 19.6046C15.2408 19.9195 15.5581 20.2249 15.8731 20.5326C16.3731 21.0183 16.6303 21.6073 16.6303 22.3046C16.6303 26.2885 16.6303 30.27 16.6279 34.2538C16.6279 34.362 16.6544 34.4077 16.7649 34.4245C17.4333 34.5231 18.1016 34.6313 18.7723 34.7251C19.0199 34.7587 19.2723 34.7563 19.5367 34.7732C19.5367 34.7107 19.5367 34.6674 19.5367 34.6265C19.5367 32.0131 19.5367 29.402 19.5392 26.7886C19.5392 26.6611 19.5055 26.6154 19.3805 26.5794C18.2843 26.262 17.616 25.1633 17.8347 24.0477C18.0535 22.9393 19.0872 22.1747 20.2123 22.2853C21.246 22.3887 22.0898 23.2302 22.1787 24.2448C22.2749 25.334 21.6114 26.3077 20.5753 26.589C20.4839 26.613 20.4479 26.6467 20.4479 26.7477C20.4503 29.3732 20.4503 31.9962 20.4503 34.6217C20.4503 34.665 20.4503 34.7083 20.4503 34.7491C20.4743 34.7587 20.4839 34.7635 20.4959 34.766C20.532 34.766 20.5681 34.766 20.6041 34.7636C21.4792 34.7275 22.3422 34.6121 23.198 34.4294C23.3254 34.4029 23.3591 34.3548 23.3591 34.2274C23.3543 30.2483 23.3543 26.2692 23.3567 22.2901C23.3567 21.6073 23.6091 21.0255 24.0995 20.5494C24.4 20.2561 24.7029 19.9628 25.0082 19.6719C25.0611 19.6214 25.0683 19.5853 25.0323 19.518C24.8664 19.2055 24.7774 18.8689 24.7847 18.513C24.8039 17.3133 25.7439 16.354 26.9386 16.3396C27.8666 16.3275 28.5661 16.7579 28.9628 17.5922C29.3619 18.4337 29.2513 19.2535 28.6431 19.9604C28.0397 20.6625 27.256 20.8836 26.3617 20.6288C26.1237 20.5615 25.9025 20.4292 25.6597 20.3186C25.3736 20.5951 25.0755 20.8909 24.7702 21.1794C24.4385 21.4919 24.2774 21.8718 24.2774 22.3238C24.2774 26.2139 24.2774 30.1065 24.2774 33.9966C24.2774 34.0399 24.2774 34.0807 24.2774 34.1336C24.3255 34.1216 24.3543 34.1168 24.3856 34.1072C25.6429 33.7129 26.8232 33.1575 27.9363 32.453C28.006 32.4098 28.0204 32.3593 28.018 32.2847C28.0156 31.7077 28.0132 31.1307 28.0204 30.5537C28.0204 30.4527 27.9892 30.419 27.8954 30.395C26.8737 30.1113 26.2126 29.1688 26.2872 28.1133C26.3593 27.1011 27.1165 26.2813 28.1382 26.1081C29.1239 25.9422 30.1239 26.5049 30.511 27.4401C30.898 28.3778 30.5879 29.4669 29.7705 30.0584C29.5205 30.2387 29.2441 30.3589 28.9484 30.431C28.9484 30.8686 28.9484 31.2966 28.9484 31.7558C31.8909 29.4381 33.7467 26.4784 34.5112 22.8143C34.1121 22.8143 33.7443 22.8119 33.3765 22.8191C33.3477 22.8191 33.302 22.872 33.2924 22.9056C32.9847 23.9804 32.0519 24.6319 30.9461 24.543C29.9148 24.4588 29.0926 23.6293 28.9724 22.5546C28.8426 21.3693 29.7898 20.2441 30.9846 20.1672C32.0639 20.0974 32.9847 20.7466 33.2804 21.7901C33.302 21.867 33.3284 21.9007 33.415 21.9007C33.7924 21.8958 34.1674 21.8983 34.5449 21.8983C34.5785 21.8983 34.6146 21.8934 34.6554 21.8886C35.0497 18.5972 34.4535 15.5125 32.8092 12.6418C31.6841 10.6751 30.1696 9.0618 28.2873 7.7683C28.2825 7.81879 28.2777 7.84524 28.2777 7.87168C28.2777 8.80935 28.2801 9.74702 28.2753 10.6847C28.2753 10.7881 28.3305 10.7977 28.4027 10.8169C29.5662 11.1415 30.2561 12.3485 29.9388 13.5073C29.6215 14.671 28.4243 15.3658 27.2584 15.0605C26.3016 14.8104 25.6309 13.9473 25.6188 12.9495C25.6068 11.9662 26.2679 11.0886 27.2295 10.8169C27.3233 10.7905 27.3545 10.7568 27.3545 10.6558C27.3521 9.53785 27.3545 8.41986 27.3569 7.30187C27.3569 7.22253 27.3401 7.17204 27.2632 7.12876C26.4819 6.69118 25.6717 6.32092 24.8255 6.0276C23.5466 5.58281 22.2292 5.32555 20.8782 5.239C20.7411 5.22938 20.6017 5.239 20.4503 5.239C20.4503 5.27987 20.4503 5.31834 20.4503 5.35921C20.4503 5.93143 20.4479 6.50605 20.4479 7.07827C20.4479 9.81915 20.4479 12.56 20.4455 15.3009C20.4455 15.4331 20.4743 15.4908 20.6113 15.5293C21.7364 15.8515 22.4047 17.0176 22.1283 18.1596C21.8494 19.2992 20.7027 20.0229 19.5512 19.7849C18.5631 19.5805 17.8347 18.7294 17.7987 17.7316C17.7602 16.6954 18.4117 15.7938 19.4045 15.5173C19.5031 15.4908 19.5343 15.45 19.5343 15.3466C19.5319 12.0215 19.5319 8.69395 19.5319 5.36883C19.5319 5.32315 19.5319 5.27746 19.5319 5.22697C19.4646 5.22697 19.4165 5.22457 19.3685 5.22697C18.9093 5.26785 18.4501 5.29189 17.9934 5.352C16.1255 5.59723 14.373 6.1983 12.7286 7.11914C12.6517 7.16242 12.6253 7.21051 12.6253 7.29706C12.6277 8.39101 12.6277 9.48495 12.6277 10.5789C12.6277 10.7736 12.6277 10.7736 12.8176 10.8314C13.9066 11.1704 14.5605 12.2932 14.3129 13.4039C14.0653 14.5195 12.9859 15.2672 11.8584 15.1062C10.8247 14.9571 10.041 14.1108 9.97127 13.0697C9.90155 12.0359 10.5771 11.0886 11.5843 10.8121C11.6805 10.7857 11.707 10.7472 11.707 10.651C11.7021 9.73019 11.7045 8.80695 11.7045 7.88611C11.7045 7.85004 11.6997 7.81398 11.6949 7.75387C9.10103 9.57872 7.22832 11.9325 6.12969 14.8898C5.28589 17.157 5.03588 19.4964 5.34359 21.9031C5.76429 21.9031 6.16816 21.8982 6.57203 21.9055C6.68742 21.9079 6.72588 21.8694 6.75713 21.7612C7.04081 20.7322 8.06731 20.0446 9.11305 20.1768C10.2093 20.3138 11.0338 21.2106 11.0603 22.295C11.0939 23.6101 10.0049 24.6511 8.69715 24.5526C7.76921 24.4829 6.99753 23.8457 6.74511 22.9345C6.72107 22.8431 6.68501 22.8167 6.59126 22.8167C6.27153 22.8239 5.94939 22.8191 5.62966 22.8191C5.58879 22.8191 5.54552 22.8239 5.48542 22.8263C6.2523 26.4904 8.10577 29.4501 11.0218 31.7462ZM12.1757 14.2142C12.8801 14.2118 13.4595 13.6323 13.4547 12.9375C13.4498 12.2354 12.8705 11.6584 12.1733 11.6584C11.4762 11.6584 10.8944 12.2427 10.8944 12.9375C10.8968 13.642 11.4762 14.219 12.1757 14.2142ZM20.0103 25.7547C20.7123 25.7523 21.2796 25.1777 21.2772 24.4708C21.2748 23.7736 20.7027 23.2014 20.0055 23.2014C19.3036 23.2014 18.7242 23.7736 18.7242 24.4732C18.7242 25.1825 19.2988 25.7571 20.0103 25.7547ZM14.2864 18.5299C14.2816 17.8302 13.7023 17.2556 13.0003 17.258C12.3007 17.2628 11.7238 17.8446 11.7286 18.5419C11.7334 19.2439 12.3176 19.821 13.0123 19.8137C13.7215 19.8065 14.2912 19.2319 14.2864 18.5299ZM25.715 18.5371C25.715 19.2367 26.2896 19.8113 26.9939 19.8161C27.6911 19.8185 28.2704 19.2391 28.2704 18.5395C28.2704 17.8398 27.6935 17.2604 26.9939 17.2604C26.292 17.2604 25.7126 17.8398 25.715 18.5371ZM31.16 23.6389C31.862 23.6414 32.4414 23.0715 32.4486 22.3695C32.4558 21.6771 31.874 21.0904 31.1745 21.0832C30.4749 21.076 29.8859 21.6626 29.8883 22.3671C29.8907 23.0643 30.4629 23.6365 31.16 23.6389ZM21.2772 17.6427C21.2772 16.9358 20.6955 16.354 19.9935 16.3588C19.2963 16.3636 18.729 16.9358 18.7266 17.6355C18.7242 18.3375 19.2988 18.9169 19.9983 18.9169C20.6979 18.9193 21.2772 18.3423 21.2772 17.6427ZM8.85822 23.6389C9.55298 23.6462 10.1347 23.0788 10.1444 22.3815C10.154 21.6771 9.57702 21.088 8.87505 21.0832C8.17549 21.0784 7.59853 21.6506 7.58892 22.3551C7.5769 23.0523 8.15145 23.6317 8.85822 23.6389ZM12.796 28.2936C12.8032 27.594 12.231 27.0146 11.5267 27.0097C10.8295 27.0049 10.2525 27.5699 10.2405 28.2672C10.2285 28.9692 10.8103 29.5607 11.5122 29.5655C12.2118 29.5703 12.7887 28.9981 12.796 28.2936ZM27.8233 14.2142C28.5253 14.2142 29.1022 13.642 29.107 12.9399C29.1094 12.2451 28.5301 11.6608 27.8305 11.6584C27.1358 11.6536 26.554 12.2355 26.5492 12.9351C26.542 13.6323 27.1213 14.2142 27.8233 14.2142ZM28.4892 27.0122C27.7848 27.0097 27.2079 27.582 27.2055 28.2816C27.2031 28.9861 27.7824 29.5655 28.4916 29.5655C29.1888 29.5655 29.7633 28.9837 29.7609 28.2816C29.7609 27.5844 29.1864 27.0122 28.4892 27.0122Z" fill="white"/>
<path d="M5.75977 9.0714C5.80785 8.96802 5.8415 8.85502 5.90401 8.76366C6.96416 7.22973 8.30319 5.99633 9.92588 5.07789C10.2071 4.91921 10.498 4.77255 10.7913 4.6331C11.0245 4.52251 11.2793 4.60906 11.414 4.81583C11.5438 5.01538 11.5101 5.28947 11.3298 5.45056C11.2841 5.49143 11.2264 5.52509 11.1687 5.55154C9.34892 6.41708 7.86566 7.67933 6.71655 9.33587C6.5651 9.55466 6.35115 9.63881 6.12517 9.56428C5.91602 9.49936 5.77659 9.30221 5.75977 9.0714Z" fill="white"/>
<path d="M3.96932 12.1536C3.97413 12.1392 3.97894 12.0983 3.99577 12.0646C4.19049 11.68 4.3804 11.2905 4.58715 10.913C4.70013 10.7062 4.93813 10.6317 5.1593 10.699C5.37325 10.7663 5.51749 10.9635 5.50547 11.1895C5.50066 11.2592 5.48384 11.3337 5.45258 11.3963C5.27228 11.7569 5.08718 12.1175 4.89967 12.4758C4.78187 12.7018 4.53426 12.8028 4.30107 12.7258C4.06789 12.6441 3.93086 12.4205 3.96932 12.1536Z" fill="white"/>
</g>
<defs>
<clipPath id="clip0_13_1027">
<rect width="40" height="40" fill="white"/>
</clipPath>
</defs>
</svg>
