<svg width="82" height="82" viewBox="0 0 82 82" fill="none" xmlns="http://www.w3.org/2000/svg">
<path d="M41 23.2222C33.6356 23.2222 27.6667 27.2 27.6667 32.1111C27.6667 37.0222 33.6356 41 41 41C48.3644 41 54.3333 44.9778 54.3333 49.8889C54.3333 54.8 48.3644 58.7778 41 58.7778M41 23.2222V58.7778M41 23.2222C45.9333 23.2222 50.2444 25.0089 52.5511 27.6667M41 23.2222V18.7778M41 58.7778V63.2222M41 58.7778C36.0667 58.7778 31.7556 56.9911 29.4489 54.3333M81 41C81 46.2529 79.9654 51.4543 77.9552 56.3073C75.945 61.1604 72.9986 65.5699 69.2843 69.2843C65.5699 72.9986 61.1604 75.945 56.3073 77.9552C51.4543 79.9654 46.2529 81 41 81C35.7471 81 30.5457 79.9654 25.6927 77.9552C20.8396 75.945 16.4301 72.9986 12.7157 69.2843C9.00138 65.5699 6.05501 61.1604 4.04482 56.3073C2.03463 51.4543 1 46.2529 1 41C1 30.3913 5.21427 20.2172 12.7157 12.7157C20.2172 5.21427 30.3913 1 41 1C51.6087 1 61.7828 5.21427 69.2843 12.7157C76.7857 20.2172 81 30.3913 81 41Z" stroke="white" stroke-width="2" stroke-linecap="round" stroke-linejoin="round"/>
</svg>
