<svg width="35" height="34" viewBox="0 0 35 34" fill="none" xmlns="http://www.w3.org/2000/svg">
<path d="M32.5329 8.08444V8.43581L32.8331 8.61842C33.7478 9.17485 34.375 10.17 34.375 11.3333V22.6667C34.375 23.83 33.7478 24.8252 32.8331 25.3816L32.5329 25.5642V25.9156V30.2222C32.5329 31.9697 31.1401 33.375 29.4737 33.375H3.68421C2.00134 33.375 0.625 31.9718 0.625 30.2222V3.77778C0.625 2.02825 2.00134 0.625 3.68421 0.625H29.4737C31.1401 0.625 32.5329 2.03031 32.5329 3.77778V8.08444ZM31.9408 11.3333V10.7083H31.3158H18.4211H17.7961V11.3333V22.6667V23.2917H18.4211H31.3158H31.9408V22.6667V11.3333ZM3.05921 30.2222V30.8472H3.68421H29.4737H30.0987V30.2222V26.4444V25.8194H29.4737H18.4211C16.7546 25.8194 15.3618 24.4141 15.3618 22.6667V11.3333C15.3618 9.58586 16.7546 8.18056 18.4211 8.18056H29.4737H30.0987V7.55556V3.77778V3.15278H29.4737H3.68421H3.05921V3.77778V30.2222Z" fill="white" stroke="#117DA1" stroke-width="1.25"/>
<path d="M26.375 17C26.375 18.3117 25.3117 19.375 24 19.375C22.6883 19.375 21.625 18.3117 21.625 17C21.625 15.6883 22.6883 14.625 24 14.625C25.3117 14.625 26.375 15.6883 26.375 17Z" fill="white" stroke="#117DA1" stroke-width="1.25"/>
</svg>
